<svg xmlns="http://www.w3.org/2000/svg" viewBox="0 0 116.134 127.09"><g id="Layer_2" data-name="Layer 2"><g id="Layer_1-2" data-name="Layer 1"><path d="M66.113,14.794a5.483,5.483,0,0,1-4.856-2.926,1.149,1.149,0,1,1,2.03-1.076,3.192,3.192,0,0,0,5.85-.472,1.15,1.15,0,1,1,2.18.734A5.488,5.488,0,0,1,66.113,14.794Z" fill="#377639"/><path d="M66.113,19.139a9.822,9.822,0,0,1-9.073-6.028,1.149,1.149,0,1,1,2.119-.891,7.534,7.534,0,0,0,14-.254,1.15,1.15,0,0,1,2.15.816A9.886,9.886,0,0,1,66.113,19.139Z" fill="#377639"/><path d="M66.113,23.483A14.182,14.182,0,0,1,52.185,11.945a1.149,1.149,0,0,1,2.259-.425,11.879,11.879,0,0,0,23.291.253,1.149,1.149,0,1,1,2.248.476A14.238,14.238,0,0,1,66.113,23.483Z" fill="#377639"/><path d="M66.113,27.828a18.511,18.511,0,0,1-18.5-17.56,1.15,1.15,0,1,1,2.3-.119,16.227,16.227,0,0,0,31.806,3.614,1.15,1.15,0,0,1,2.211.63A18.6,18.6,0,0,1,66.113,27.828Z" fill="#377639"/><path d="M66.113,36.516A27.212,27.212,0,0,1,40.263.791a1.149,1.149,0,0,1,2.183.719A24.912,24.912,0,0,0,86.391,23.768a1.15,1.15,0,1,1,1.871,1.337A27.289,27.289,0,0,1,66.113,36.516Z" fill="#377639"/><path d="M66.113,32.171A22.871,22.871,0,0,1,44.888.78a1.15,1.15,0,0,1,2.134.858A20.572,20.572,0,0,0,84.268,18.977,1.15,1.15,0,0,1,86.3,20.06,22.847,22.847,0,0,1,66.113,32.171Z" fill="#377639"/><path d="M80.488,39.621a33.415,33.415,0,0,1-14.346,3.2A33.553,33.553,0,0,1,40.15,30.494c-.14.978-.321,1.942-.535,2.894A35.817,35.817,0,0,0,66.142,45.122,35.92,35.92,0,0,0,78.17,43.063l-.016-.029A33.7,33.7,0,0,1,80.488,39.621Z" fill="#377639"/><path d="M45.729,67.5a5.534,5.534,0,0,1-1.286-.157,1.149,1.149,0,0,1,.537-2.235,3.193,3.193,0,1,0-1.235-5.6,1.149,1.149,0,1,1-1.428-1.8,5.435,5.435,0,0,1,3.412-1.193,5.494,5.494,0,0,1,0,10.988Z" fill="#8cbf3f"/><path d="M45.945,71.831a1.15,1.15,0,0,1-.029-2.3,7.535,7.535,0,1,0-6.751-11.225,1.15,1.15,0,0,1-2-1.13,9.834,9.834,0,1,1,8.811,14.654Z" fill="#8cbf3f"/><path d="M48.316,75.928a1.149,1.149,0,0,1-.226-2.276,11.882,11.882,0,1,0-11.98-18.6A1.149,1.149,0,1,1,34.249,53.7,14.177,14.177,0,1,1,48.544,75.905,1.176,1.176,0,0,1,48.316,75.928Z" fill="#8cbf3f"/><path d="M50.154,79.959a1.149,1.149,0,0,1-.291-2.26A16.229,16.229,0,1,0,30.207,57.26a1.149,1.149,0,0,1-2.2-.671A18.528,18.528,0,1,1,50.447,79.922,1.137,1.137,0,0,1,50.154,79.959Z" fill="#8cbf3f"/><path d="M58.711,46.065A20.559,20.559,0,0,1,50.974,81.9a1.149,1.149,0,0,0,.291,2.261,1.192,1.192,0,0,0,.294-.038A22.861,22.861,0,0,0,62.652,46.635,37.277,37.277,0,0,1,58.711,46.065Z" fill="#8cbf3f"/><path d="M66.112,46.8c-.227,0-.45-.013-.676-.017a24.89,24.89,0,0,1-15.41,39.758,1.149,1.149,0,0,0,.2,2.282,1.223,1.223,0,0,0,.2-.016A27.2,27.2,0,0,0,68.246,46.737C67.539,46.777,66.829,46.8,66.112,46.8Z" fill="#8cbf3f"/><path d="M70.546,46.53a29.1,29.1,0,0,1-4.819,36.742,37.341,37.341,0,0,1,4.212-1.129A31.343,31.343,0,0,0,73,46.156Q71.787,46.383,70.546,46.53Z" fill="#8cbf3f"/><path d="M75.169,45.689a33.687,33.687,0,0,1-2.161,35.97q1.457-.173,2.945-.233a36.005,36.005,0,0,0,1.485-36.377Q76.318,45.4,75.169,45.689Z" fill="#8cbf3f"/><path d="M23.541,56.534c-.094.384-.2.765-.271,1.157a1.15,1.15,0,1,0,2.259.431A20.436,20.436,0,0,1,26.7,54.228,37.693,37.693,0,0,1,23.541,56.534Z" fill="#8cbf3f"/><path d="M43.562,39.241a22.765,22.765,0,0,0-6.482,1.616,37.418,37.418,0,0,1-1.819,3.452,20.507,20.507,0,0,1,10.468-2.877c.4,0,.783.038,1.174.06A37.458,37.458,0,0,1,43.562,39.241Z" fill="#8cbf3f"/><path d="M39.375,35.561c-.117.028-.229.066-.345.1-.259.887-.545,1.762-.867,2.62a24.848,24.848,0,0,1,3.233-.809C40.7,36.856,40.024,36.222,39.375,35.561Z" fill="#8cbf3f"/><path d="M36.862,8.984a29.365,29.365,0,0,1,.887-6.891,1.149,1.149,0,1,0-2.228-.565,31.575,31.575,0,0,0-.71,3.755A37.294,37.294,0,0,1,36.862,8.984Z" fill="#377639"/><path d="M90.08,28.044a1.144,1.144,0,0,0-1.619.136,29.245,29.245,0,0,1-47.97-4.765c.027.579.045,1.161.045,1.746,0,.83-.037,1.652-.091,2.469a31.526,31.526,0,0,0,49.77,2.033A1.149,1.149,0,0,0,90.08,28.044Z" fill="#377639"/><path d="M70.015,124.527a1.147,1.147,0,0,1-.983-.553A9.833,9.833,0,0,1,82.911,110.71a1.15,1.15,0,0,1-1.279,1.912A7.531,7.531,0,0,0,71,122.782a1.147,1.147,0,0,1-.386,1.578A1.134,1.134,0,0,1,70.015,124.527Z" fill="#ffcc27"/><path d="M65.975,126.23a1.148,1.148,0,0,1-1.012-.6A14.172,14.172,0,0,1,84.51,106.6a1.149,1.149,0,1,1-1.147,1.992,11.88,11.88,0,0,0-16.379,15.938,1.148,1.148,0,0,1-.464,1.557A1.127,1.127,0,0,1,65.975,126.23Z" fill="#ffcc27"/><path d="M61.563,127.09a1.153,1.153,0,0,1-1.052-.683,18.523,18.523,0,0,1,27.082-23.013,1.149,1.149,0,1,1-1.26,1.921,16.224,16.224,0,0,0-23.72,20.158,1.15,1.15,0,0,1-1.05,1.617Z" fill="#ffcc27"/><path d="M56.241,115.323a1.254,1.254,0,0,1-.249-.026,1.152,1.152,0,0,1-.875-1.371,22.87,22.87,0,0,1,32.969-15.28,1.149,1.149,0,1,1-1.071,2.033,20.572,20.572,0,0,0-29.652,13.743A1.15,1.15,0,0,1,56.241,115.323Z" fill="#ffcc27"/><path d="M54.3,108.044a1.134,1.134,0,0,1-.528-.129,1.147,1.147,0,0,1-.491-1.549,27.209,27.209,0,0,1,36.38-11.793,1.149,1.149,0,0,1-1.033,2.053,24.913,24.913,0,0,0-33.307,10.8A1.148,1.148,0,0,1,54.3,108.044Z" fill="#ffcc27"/><path d="M73.767,122.345a1.148,1.148,0,0,1-.974-.538,5.491,5.491,0,0,1,8.174-7.131,1.149,1.149,0,0,1-1.476,1.762,3.191,3.191,0,0,0-4.751,4.146,1.149,1.149,0,0,1-.973,1.761Z" fill="#ffcc27"/><path d="M80.4,87.483c-.979-.091-1.962-.154-2.955-.154a31.553,31.553,0,0,0-26.124,13.852,1.149,1.149,0,1,0,1.9,1.291A29.238,29.238,0,0,1,83.676,90.3,37.8,37.8,0,0,1,80.4,87.483Z" fill="#ffcc27"/><path d="M76.387,82.935A35.641,35.641,0,0,0,48.95,97.008a1.149,1.149,0,1,0,1.825,1.4,33.383,33.383,0,0,1,26.7-13.2c.26,0,.516.023.775.029C77.6,84.493,76.979,83.724,76.387,82.935Z" fill="#ffcc27"/><path d="M95.663,92.149A33.548,33.548,0,0,1,78.909,79.505q-.593,1.116-1.257,2.187a35.838,35.838,0,0,0,17.27,12.634,1.14,1.14,0,0,0,.371.061,1.15,1.15,0,0,0,.37-2.238Z" fill="#059899"/><path d="M103.352,64.594a1.142,1.142,0,0,1-.824-.349,5.49,5.49,0,0,1,7.761-7.765,1.15,1.15,0,1,1-1.6,1.651,3.192,3.192,0,0,0-4.512,4.514,1.15,1.15,0,0,1-.825,1.949Z" fill="#059899"/><path d="M100.18,67.556a1.145,1.145,0,0,1-.833-.357,9.829,9.829,0,0,1,13.821-13.967,1.149,1.149,0,0,1-1.567,1.681,7.53,7.53,0,0,0-10.588,10.7,1.148,1.148,0,0,1-.833,1.941Z" fill="#059899"/><path d="M97.019,70.53a1.149,1.149,0,0,1-.834-.358,14.159,14.159,0,0,1,6.45-23.394,1.149,1.149,0,0,1,.62,2.213,11.86,11.86,0,0,0-5.4,19.6,1.149,1.149,0,0,1-.834,1.941Z" fill="#059899"/><path d="M94.846,74.487a1.146,1.146,0,0,1-.77-.3,18.525,18.525,0,0,1,7.148-31.538,1.15,1.15,0,1,1,.651,2.2,16.224,16.224,0,0,0-6.26,27.624,1.15,1.15,0,0,1-.769,2Z" fill="#059899"/><path d="M96.174,80.7a1.155,1.155,0,0,1-.545-.138A22.875,22.875,0,0,1,98.35,39.04a1.15,1.15,0,0,1,.817,2.149A20.576,20.576,0,0,0,96.72,78.542a1.149,1.149,0,0,1-.546,2.161Z" fill="#059899"/><path d="M82.431,53.868A24.9,24.9,0,0,1,94.79,38.412a1.15,1.15,0,1,0-1.079-2.031A27.2,27.2,0,0,0,81.353,49.95,37.174,37.174,0,0,1,82.431,53.868Z" fill="#059899"/><path d="M97.564,83.693A25.069,25.069,0,0,1,82.777,68.06a37.755,37.755,0,0,1-.883,3.965A27.329,27.329,0,0,0,96.741,85.84a1.15,1.15,0,0,0,.823-2.147Z" fill="#059899"/><path d="M80.3,47.345A29.321,29.321,0,0,1,92.287,34.828a1.15,1.15,0,1,0-1.116-2.01,31.6,31.6,0,0,0-12.1,11.968C79.515,45.621,79.926,46.473,80.3,47.345Z" fill="#059899"/><path d="M97.779,88.371a29.119,29.119,0,0,1-16.825-13.6q-.505,1.347-1.113,2.641A31.436,31.436,0,0,0,97.1,90.566a1.115,1.115,0,0,0,.34.052,1.149,1.149,0,0,0,.341-2.247Z" fill="#059899"/><path d="M114.985,51.72a1.144,1.144,0,0,1-.752-.28A11.788,11.788,0,0,0,107.56,48.6a1.147,1.147,0,0,1-1.04-1.248,1.135,1.135,0,0,1,1.248-1.041,14.064,14.064,0,0,1,7.969,3.4,1.15,1.15,0,0,1-.752,2.019Z" fill="#059899"/><path d="M3.032,30.655l-.152-.006a1.176,1.176,0,0,1-1.1-1.2,1.128,1.128,0,0,1,1.121-1.1l.132.005h0a3.192,3.192,0,0,0,2.307-5.406A1.15,1.15,0,0,1,7,21.356a5.473,5.473,0,0,1,1.531,3.8A5.5,5.5,0,0,1,3.032,30.655Z" fill="#f2971f"/><path d="M3.032,35,2.894,35A1.15,1.15,0,1,1,3.073,32.7a7.548,7.548,0,0,0,7.5-7.547,7.5,7.5,0,0,0-2.125-5.24,1.151,1.151,0,0,1,1.655-1.6,9.8,9.8,0,0,1,2.771,6.839A9.858,9.858,0,0,1,3.032,35Z" fill="#f2971f"/><path d="M3.032,39.351a14.176,14.176,0,0,1-1.825-.129A1.151,1.151,0,0,1,1.5,36.939a11.833,11.833,0,0,0,1.532.112A11.906,11.906,0,0,0,14.925,25.157a11.77,11.77,0,0,0-3.779-8.677,1.15,1.15,0,1,1,1.571-1.68,14.05,14.05,0,0,1,4.508,10.357A14.209,14.209,0,0,1,3.032,39.351Z" fill="#f2971f"/><path d="M3.032,43.7a18.778,18.778,0,0,1-2-.109,1.149,1.149,0,0,1-1.02-1.268A1.169,1.169,0,0,1,1.275,41.3a15.981,15.981,0,0,0,1.757.1,16.26,16.26,0,0,0,16.241-16.24,16.2,16.2,0,0,0-5.915-12.536,1.15,1.15,0,1,1,1.464-1.774,18.49,18.49,0,0,1,6.752,14.31A18.562,18.562,0,0,1,3.032,43.7Z" fill="#f2971f"/><path d="M6.593,52.146a1.151,1.151,0,0,1-.154-2.291,25.009,25.009,0,0,0,21.53-24.7A24.884,24.884,0,0,0,18.978,5.988,1.15,1.15,0,1,1,20.45,4.22a27.174,27.174,0,0,1,9.82,20.937A27.321,27.321,0,0,1,6.751,52.136,1.426,1.426,0,0,1,6.593,52.146Z" fill="#f2971f"/><path d="M12.127,55.359a1.151,1.151,0,0,1-.343-2.249A29.281,29.281,0,0,0,24.292,5.029a1.15,1.15,0,0,1,1.67-1.581A31.582,31.582,0,0,1,12.471,55.307,1.172,1.172,0,0,1,12.127,55.359Z" fill="#f2971f"/><path d="M17.751,57.755a1.15,1.15,0,0,1-.488-2.193,33.77,33.77,0,0,0,19.43-30.486A33.7,33.7,0,0,0,29.178,3.892a1.15,1.15,0,0,1,1.786-1.45,36.007,36.007,0,0,1,8.03,22.634A36.079,36.079,0,0,1,18.236,57.647,1.151,1.151,0,0,1,17.751,57.755Z" fill="#f2971f"/><path d="M25.922,25.157A22.721,22.721,0,0,0,16.814,6.883,1.151,1.151,0,1,0,15.428,8.72a20.436,20.436,0,0,1,8.193,16.437A20.616,20.616,0,0,1,4.665,45.665c-.12.009-.24.02-.36.027-.158.01-.318.016-.478.023-.32.013-.641.024-.965.024a1.151,1.151,0,0,0-.157,2.291,1.334,1.334,0,0,0,.157.011c.188,0,.375-.009.564-.013,0,0,.76-.023.891-.03.23-.012.976-.076.976-.076A22.912,22.912,0,0,0,25.922,25.157Z" fill="#f2971f"/></g></g></svg>