<?xml version="1.0"?>
<svg xmlns="http://www.w3.org/2000/svg" xmlns:xlink="http://www.w3.org/1999/xlink" xmlns:svgjs="http://svgjs.com/svgjs" version="1.1" width="512" height="512" x="0" y="0" viewBox="0 0 496 496" style="enable-background:new 0 0 512 512" xml:space="preserve" class=""><g>
<path xmlns="http://www.w3.org/2000/svg" style="" d="M496,376c0,17.6-14.4,32-32,32H32c-17.6,0-32-14.4-32-32V120c0-17.6,14.4-32,32-32h432  c17.6,0,32,14.4,32,32V376z" fill="#a64d79" data-original="#ff2970" class=""/>
<path xmlns="http://www.w3.org/2000/svg" style="" d="M0,120c0-17.6,14.4-32,32-32h432c17.6,0,32,14.4,32,32v256c0,17.6-14.4,32-32,32" fill="#a64d79" data-original="#d10257" class=""/>
<g xmlns="http://www.w3.org/2000/svg">
	<path style="" d="M104.8,208c-0.8-2.4-3.2-4-4.8-4H84c-2.4,0-4,1.6-4.8,4L44,310.4c-0.8,1.6,0,3.2,0.8,4.8   c0.8,1.6,2.4,2.4,4,2.4h13.6c2.4,0,4-1.6,4.8-4l9.6-28h28l9.6,28.8c0.8,2.4,2.4,4,4.8,4h14.4l0,0c3.2,0,5.6-2.4,5.6-5.6   c0-0.8,0-1.6-0.8-2.4L104.8,208z M91.2,240.8v0.8l7.2,22.4h-16L91.2,240.8C91.2,241.6,91.2,241.6,91.2,240.8z" fill="#a64d79" data-original="#bc0056" class=""/>
	<path style="" d="M235.2,204.8h-13.6c-3.2,0-5.6,2.4-5.6,5.6v60c0,27.2-14.4,27.2-19.2,27.2   c-15.2,0-18.4-14.4-18.4-27.2v-60c0-3.2-2.4-5.6-5.6-5.6H160c-3.2,0-5.6,2.4-5.6,5.6v60c0,31.2,15.2,48.8,42.4,48.8   c28,0,44-18.4,44-49.6v-59.2C240.8,207.2,238.4,204.8,235.2,204.8z" fill="#a64d79" data-original="#bc0056" class=""/>
	<path style="" d="M337.6,204.8h-75.2c-3.2,0-5.6,2.4-5.6,5.6v11.2c0,3.2,2.4,5.6,5.6,5.6H288V312   c0,3.2,2.4,5.6,5.6,5.6h13.6c3.2,0,5.6-2.4,5.6-5.6v-85.6h25.6c3.2,0,5.6-2.4,5.6-5.6v-11.2C342.4,207.2,340,204.8,337.6,204.8z" fill="#a64d79" data-original="#bc0056" class=""/>
	<path style="" d="M400.8,203.2c-31.2,0-52.8,24-52.8,59.2c0,33.6,20.8,56.8,51.2,56.8c26.4,0,52.8-18.4,52.8-59.2   C452,226.4,431.2,203.2,400.8,203.2z M400.8,224c18.4,0,27.2,18.4,27.2,36c0,18.4-8.8,36.8-27.2,36.8c-18.4,0-27.2-18.4-27.2-36   C372.8,244,380,224,400.8,224z" fill="#a64d79" data-original="#bc0056" class=""/>
</g>
<g xmlns="http://www.w3.org/2000/svg">
	<path style="" d="M104.8,195.2c-0.8-2.4-3.2-4-4.8-4H84c-2.4,0-4,1.6-4.8,4L44,297.6c-0.8,1.6,0,3.2,0.8,4.8   c0.8,1.6,2.4,2.4,4,2.4h13.6c2.4,0,4-1.6,4.8-4l9.6-28h28l9.6,28.8c0.8,2.4,2.4,4,4.8,4h14.4l0,0c3.2,0,5.6-2.4,5.6-5.6   c0-0.8,0-1.6-0.8-2.4L104.8,195.2z M91.2,228v0.8l7.2,22.4h-16L91.2,228C91.2,228.8,91.2,228,91.2,228z" fill="#ffffff" data-original="#ffffff"/>
	<path style="" d="M235.2,191.2h-13.6c-3.2,0-5.6,2.4-5.6,5.6v60c0,27.2-14.4,27.2-19.2,27.2   c-15.2,0-18.4-14.4-18.4-27.2v-60c0-3.2-2.4-5.6-5.6-5.6H160c-3.2,0-5.6,2.4-5.6,5.6v60c0,31.2,15.2,48.8,42.4,48.8   c28,0,44-18.4,44-49.6v-59.2C240.8,193.6,238.4,191.2,235.2,191.2z" fill="#ffffff" data-original="#ffffff"/>
	<path style="" d="M337.6,191.2h-75.2c-3.2,0-5.6,2.4-5.6,5.6V208c0,3.2,2.4,5.6,5.6,5.6H288v85.6   c0,3.2,2.4,5.6,5.6,5.6h13.6c3.2,0,5.6-2.4,5.6-5.6v-85.6h25.6c3.2,0,5.6-2.4,5.6-5.6v-11.2C342.4,193.6,340,191.2,337.6,191.2z" fill="#ffffff" data-original="#ffffff"/>
	<path style="" d="M400.8,189.6c-31.2,0-52.8,24-52.8,59.2c0,33.6,20.8,56.8,51.2,56.8c26.4,0,52.8-18.4,52.8-59.2   C452,213.6,431.2,189.6,400.8,189.6z M400.8,211.2c18.4,0,27.2,18.4,27.2,36c0,18.4-8.8,36.8-27.2,36.8c-18.4,0-27.2-18.4-27.2-36   C372.8,231.2,380,211.2,400.8,211.2z" fill="#ffffff" data-original="#ffffff"/>
</g>
<g xmlns="http://www.w3.org/2000/svg">
</g>
<g xmlns="http://www.w3.org/2000/svg">
</g>
<g xmlns="http://www.w3.org/2000/svg">
</g>
<g xmlns="http://www.w3.org/2000/svg">
</g>
<g xmlns="http://www.w3.org/2000/svg">
</g>
<g xmlns="http://www.w3.org/2000/svg">
</g>
<g xmlns="http://www.w3.org/2000/svg">
</g>
<g xmlns="http://www.w3.org/2000/svg">
</g>
<g xmlns="http://www.w3.org/2000/svg">
</g>
<g xmlns="http://www.w3.org/2000/svg">
</g>
<g xmlns="http://www.w3.org/2000/svg">
</g>
<g xmlns="http://www.w3.org/2000/svg">
</g>
<g xmlns="http://www.w3.org/2000/svg">
</g>
<g xmlns="http://www.w3.org/2000/svg">
</g>
<g xmlns="http://www.w3.org/2000/svg">
</g>
</g></svg>
