<?xml version="1.0"?>
<svg xmlns="http://www.w3.org/2000/svg" xmlns:xlink="http://www.w3.org/1999/xlink" xmlns:svgjs="http://svgjs.com/svgjs" version="1.1" width="512" height="512" x="0" y="0" viewBox="0 0 252.264 252.264" style="enable-background:new 0 0 512 512" xml:space="preserve" class=""><g>
<g xmlns="http://www.w3.org/2000/svg">
	<path d="M248.988,80.693c-3.423-2.335-8.089-1.452-10.422,1.97l-15.314,22.453c-9.679-44.721-49.575-78.354-97.123-78.354   c-26.544,0-51.498,10.337-70.265,29.108c-2.929,2.929-2.928,7.678,0.001,10.606c2.929,2.929,7.678,2.929,10.606-0.001   c15.933-15.937,37.12-24.713,59.657-24.713c41.32,0,75.815,29.921,82.98,69.228l-26.606-18.147   c-3.423-2.336-8.089-1.452-10.422,1.97c-2.334,3.422-1.452,8.088,1.971,10.422l39.714,27.087c0.003,0.002,0.005,0.003,0.007,0.005   c0.97,0.661,2.039,1.064,3.128,1.225c0.362,0.053,0.727,0.08,1.091,0.08c2.396,0,4.751-1.146,6.203-3.274l26.764-39.242   C253.293,87.693,252.41,83.027,248.988,80.693z" fill="#6db1ff" data-original="#000000" style=""/>
	<path d="M187.196,184.351c-16.084,16.863-37.77,26.15-61.065,26.15c-41.317-0.001-75.813-29.921-82.978-69.227l26.607,18.147   c1.293,0.882,2.764,1.305,4.219,1.305c2.396,0,4.751-1.145,6.203-3.274c2.334-3.422,1.452-8.088-1.97-10.422l-39.714-27.087   c-0.002-0.001-0.004-0.003-0.006-0.005c-3.424-2.335-8.088-1.452-10.422,1.97L1.304,161.149c-2.333,3.422-1.452,8.088,1.97,10.422   c1.293,0.882,2.764,1.304,4.219,1.304c2.397,0,4.751-1.146,6.203-3.275l15.313-22.453c9.68,44.72,49.577,78.352,97.121,78.352   c27.435,0,52.977-10.938,71.919-30.797c2.859-2.997,2.747-7.745-0.25-10.604C194.8,181.241,190.053,181.353,187.196,184.351z" fill="#6db1ff" data-original="#000000" style=""/>
</g>
<g xmlns="http://www.w3.org/2000/svg">
</g>
<g xmlns="http://www.w3.org/2000/svg">
</g>
<g xmlns="http://www.w3.org/2000/svg">
</g>
<g xmlns="http://www.w3.org/2000/svg">
</g>
<g xmlns="http://www.w3.org/2000/svg">
</g>
<g xmlns="http://www.w3.org/2000/svg">
</g>
<g xmlns="http://www.w3.org/2000/svg">
</g>
<g xmlns="http://www.w3.org/2000/svg">
</g>
<g xmlns="http://www.w3.org/2000/svg">
</g>
<g xmlns="http://www.w3.org/2000/svg">
</g>
<g xmlns="http://www.w3.org/2000/svg">
</g>
<g xmlns="http://www.w3.org/2000/svg">
</g>
<g xmlns="http://www.w3.org/2000/svg">
</g>
<g xmlns="http://www.w3.org/2000/svg">
</g>
<g xmlns="http://www.w3.org/2000/svg">
</g>
</g></svg>
