<?xml version="1.0" encoding="UTF-8"?>
<svg id="Layer_1" data-name="Layer 1" xmlns="http://www.w3.org/2000/svg" viewBox="0 0 197.24 210.88">
  <defs>
    <style>
      .cls-1 {
        fill: #39773a;
      }

      .cls-2 {
        fill: #f29820;
      }

      .cls-3 {
        fill: #ffcd2a;
      }

      .cls-4 {
        fill: #808285;
      }

      .cls-5 {
        fill: #8cbf3f;
      }

      .cls-6 {
        fill: #029899;
      }
    </style>
  </defs>
  <g id="Layer_2" data-name="Layer 2">
    <g id="Layer_1-2" data-name="Layer 1-2">
      <path class="cls-1" d="M109.13,32.94c-3.01,0-5.77-1.66-7.18-4.32-.46-.82-.16-1.85,.66-2.31,.82-.46,1.85-.16,2.31,.66,.01,.02,.02,.04,.03,.06,1.21,2.3,4.07,3.19,6.37,1.97,1.07-.57,1.89-1.52,2.27-2.67,.3-.89,1.26-1.37,2.15-1.07,.89,.3,1.37,1.26,1.07,2.15-1.11,3.3-4.21,5.53-7.69,5.53Z"/>
      <path class="cls-1" d="M109.13,39.36c-5.86,0-11.14-3.51-13.41-8.91-.36-.86,.04-1.86,.91-2.22,.86-.36,1.86,.04,2.22,.91h0c2.37,5.67,8.9,8.34,14.57,5.97,2.83-1.18,5.04-3.48,6.12-6.35,.35-.87,1.34-1.3,2.21-.95,.85,.34,1.28,1.29,.97,2.15-2.15,5.64-7.55,9.37-13.59,9.39Z"/>
      <path class="cls-1" d="M109.13,45.78c-10.06,0-18.7-7.16-20.58-17.05-.17-.92,.43-1.81,1.36-1.98,.92-.17,1.81,.43,1.98,1.36,1.81,9.52,10.99,15.78,20.52,13.97,6.95-1.32,12.43-6.68,13.9-13.6,.18-.92,1.08-1.52,2-1.33,.92,.18,1.52,1.08,1.33,2,0,.01,0,.03,0,.04-2.09,9.66-10.61,16.57-20.5,16.6Z"/>
      <path class="cls-1" d="M109.13,52.2c-14.57,.01-26.59-11.4-27.34-25.95-.05-.94,.67-1.74,1.61-1.79,.94-.05,1.74,.67,1.79,1.61,.69,13.22,11.98,23.38,25.2,22.69,10.23-.54,18.98-7.51,21.8-17.35,.28-.89,1.24-1.39,2.13-1.11,.86,.27,1.35,1.17,1.13,2.04-3.39,11.73-14.12,19.82-26.33,19.85Z"/>
      <path class="cls-1" d="M109.13,65.04c-22.21,0-40.21-18-40.22-40.2,0-4.28,.68-8.52,2.02-12.59,.29-.89,1.25-1.38,2.14-1.08,.89,.29,1.38,1.25,1.08,2.14-6.36,19.31,4.13,40.12,23.44,46.48,15.32,5.05,32.13-.46,41.49-13.59,.53-.77,1.59-.97,2.36-.44,.77,.53,.97,1.59,.44,2.36-.01,.02-.02,.03-.04,.05-7.56,10.56-19.74,16.84-32.73,16.86Z"/>
      <path class="cls-1" d="M109.13,58.62c-18.66,0-33.8-15.13-33.8-33.8,0-4.31,.83-8.59,2.43-12.59,.35-.87,1.34-1.29,2.21-.94s1.29,1.34,.94,2.21c-6.25,15.58,1.31,33.28,16.89,39.54,14.4,5.78,30.85-.22,38.15-13.91,.44-.83,1.47-1.14,2.3-.7s1.14,1.47,.7,2.3c-5.87,11.02-17.34,17.91-29.83,17.9Z"/>
      <path class="cls-1" d="M130.37,69.63c-6.63,3.13-13.87,4.75-21.2,4.73-14.89,0-28.99-6.68-38.41-18.22-.21,1.45-.47,2.87-.79,4.28,10.04,11.05,24.27,17.35,39.2,17.34,6.05,0,12.07-1.02,17.77-3.04l-.02-.04c1.05-1.75,2.2-3.43,3.45-5.04Z"/>
      <path class="cls-5" d="M79.01,110.82c-.64,0-1.28-.08-1.9-.23-.91-.22-1.47-1.14-1.25-2.05,.22-.91,1.14-1.47,2.05-1.25h0c2.53,.62,5.08-.94,5.7-3.47s-.94-5.08-3.47-5.7c-1.42-.34-2.91-.01-4.05,.89-.72,.6-1.79,.49-2.39-.23-.6-.72-.49-1.79,.23-2.39,.02-.01,.03-.02,.05-.04,1.43-1.15,3.21-1.77,5.04-1.76,4.48,0,8.12,3.63,8.12,8.12s-3.63,8.12-8.12,8.12h0Z"/>
      <path class="cls-5" d="M79.33,117.22c-.94,.01-1.71-.74-1.72-1.68-.01-.94,.74-1.71,1.68-1.72,6.15-.15,11.01-5.25,10.86-11.4-.15-6.15-5.25-11.01-11.4-10.86-3.93,.1-7.51,2.25-9.44,5.68-.5,.79-1.55,1.03-2.34,.53-.74-.47-1-1.42-.61-2.2,3.94-6.99,12.8-9.47,19.79-5.54,6.99,3.94,9.47,12.8,5.54,19.79-2.51,4.46-7.19,7.27-12.31,7.4h-.05Z"/>
      <path class="cls-5" d="M82.83,123.28c-.94,0-1.7-.76-1.7-1.69,0-.81,.57-1.51,1.37-1.67,9.51-1.91,15.66-11.17,13.75-20.68-1.91-9.51-11.17-15.66-20.68-13.75-4.34,.87-8.19,3.35-10.78,6.94-.55,.76-1.61,.93-2.37,.38-.76-.55-.93-1.61-.38-2.37h0c6.78-9.37,19.88-11.48,29.25-4.7,9.37,6.78,11.48,19.88,4.7,29.25-3.09,4.27-7.66,7.21-12.82,8.26-.11,.02-.22,.03-.34,.03Z"/>
      <path class="cls-5" d="M85.55,129.24c-.94,0-1.7-.76-1.69-1.7,0-.77,.52-1.44,1.26-1.64,12.81-3.38,20.45-16.49,17.08-29.3-3.38-12.81-16.49-20.45-29.3-17.08-8.03,2.12-14.39,8.24-16.82,16.18-.27,.9-1.22,1.4-2.12,1.13s-1.4-1.22-1.13-2.12h0c4.42-14.46,19.73-22.6,34.19-18.18,14.46,4.42,22.6,19.73,18.18,34.19-2.77,9.07-10.04,16.05-19.21,18.47-.14,.04-.29,.06-.43,.05Z"/>
      <path class="cls-5" d="M98.19,79.15c13.02,10.58,14.99,29.72,4.41,42.74-4.06,5-9.61,8.58-15.84,10.22-.91,.24-1.45,1.16-1.22,2.07,.19,.75,.87,1.27,1.65,1.27,.15,0,.29-.02,.43-.06,18.04-4.75,28.82-23.23,24.07-41.27-1.38-5.26-4.02-10.1-7.68-14.13-1.95-.18-3.9-.46-5.82-.84Z"/>
      <path class="cls-5" d="M109.13,80.24c-.34,0-.66-.02-1-.03,12.44,16.06,9.5,39.16-6.57,51.6-4.74,3.67-10.3,6.12-16.2,7.15-.92,.16-1.55,1.03-1.39,1.96,.14,.82,.85,1.42,1.69,1.42,.1,0,.2,0,.3-.02,21.87-3.82,36.49-24.65,32.67-46.51-.98-5.61-3.14-10.94-6.34-15.65-1.04,.06-2.09,.09-3.15,.09Z"/>
      <path class="cls-5" d="M115.68,79.84c10.95,17.47,7.96,40.24-7.12,54.29,2.04-.68,4.12-1.23,6.22-1.67,12.6-14.99,14.41-36.28,4.52-53.18-1.19,.22-2.4,.41-3.63,.55Z"/>
      <path class="cls-5" d="M122.51,78.6c9.3,16.85,8.05,37.54-3.19,53.15,1.44-.17,2.89-.29,4.35-.34,10.4-16.2,11.24-36.76,2.19-53.75-1.1,.35-2.22,.66-3.35,.95Z"/>
      <path class="cls-5" d="M46.22,94.62c-.14,.57-.3,1.13-.4,1.71-.19,.92,.4,1.82,1.32,2.01s1.82-.4,2.01-1.32c0-.02,0-.03,0-.05,.38-1.97,.96-3.9,1.73-5.75-1.5,1.22-3.05,2.35-4.67,3.41Z"/>
      <path class="cls-5" d="M75.81,69.07c-3.29,.32-6.52,1.13-9.58,2.39-.81,1.75-1.7,3.45-2.69,5.1,4.68-2.78,10.02-4.25,15.47-4.25,.59,0,1.16,.06,1.73,.09-1.7-1.02-3.35-2.13-4.94-3.33Z"/>
      <path class="cls-5" d="M69.62,63.63c-.17,.04-.34,.1-.51,.15-.38,1.31-.81,2.6-1.28,3.87,1.56-.5,3.16-.9,4.78-1.2-1.03-.91-2.03-1.85-2.99-2.82Z"/>
      <path class="cls-1" d="M65.91,24.36c.03-3.43,.47-6.85,1.31-10.18,.23-.91-.32-1.83-1.23-2.06s-1.83,.32-2.06,1.23c-.46,1.83-.81,3.68-1.05,5.55,1.11,1.76,2.12,3.59,3.03,5.47Z"/>
      <path class="cls-1" d="M144.55,52.52c-.71-.61-1.78-.52-2.38,.19,0,0,0,0,0,.01-15.39,18.24-42.66,20.54-60.9,5.15-4.05-3.42-7.43-7.55-9.99-12.19,.04,.86,.07,1.72,.07,2.58,0,1.23-.05,2.44-.13,3.65,14.93,20.95,44.02,25.83,64.97,10.9,3.18-2.26,6.06-4.92,8.57-7.9,.61-.72,.52-1.79-.2-2.39Z"/>
      <path class="cls-3" d="M114.9,195.09c-.59,0-1.14-.31-1.45-.82-4.15-6.87-1.96-15.8,4.91-19.95,4.83-2.92,10.91-2.78,15.6,.35,.78,.52,.99,1.58,.47,2.36-.52,.78-1.58,.99-2.36,.47h0c-5.11-3.42-12.02-2.05-15.44,3.05-2.41,3.6-2.51,8.26-.27,11.96,.49,.8,.23,1.84-.57,2.33,0,0,0,0,0,0-.27,.16-.57,.25-.89,.25Z"/>
      <path class="cls-3" d="M108.93,197.61c-.62,0-1.2-.34-1.5-.89-5.52-10.17-1.75-22.88,8.42-28.39,6.41-3.48,14.16-3.37,20.47,.27,.81,.47,1.09,1.51,.62,2.32-.47,.81-1.51,1.09-2.32,.62h0c-8.4-4.83-19.14-1.94-23.97,6.46-3.03,5.27-3.12,11.73-.23,17.09,.45,.82,.14,1.85-.68,2.3,0,0,0,0,0,0-.25,.14-.52,.21-.81,.21Z"/>
      <path class="cls-3" d="M102.41,198.88c-.67,0-1.28-.4-1.55-1.01-6.14-13.81,.08-29.99,13.9-36.13,8.5-3.78,18.34-2.98,26.12,2.12,.8,.5,1.04,1.54,.54,2.34-.5,.8-1.54,1.04-2.34,.54-.02-.01-.05-.03-.07-.04-11.07-7.26-25.93-4.17-33.19,6.91-4.47,6.82-5.17,15.43-1.86,22.88,.38,.86,0,1.86-.86,2.24-.22,.1-.45,.15-.69,.15Z"/>
      <path class="cls-3" d="M94.54,181.49c-.12,0-.25-.01-.37-.04-.92-.2-1.49-1.11-1.29-2.03,4.05-18.22,22.1-29.71,40.32-25.66,2.92,.65,5.75,1.68,8.4,3.08,.83,.43,1.16,1.45,.74,2.29-.43,.83-1.45,1.16-2.29,.74-.01,0-.02-.01-.03-.02-14.86-7.81-33.24-2.1-41.05,12.77-1.25,2.38-2.18,4.92-2.76,7.54-.17,.78-.86,1.33-1.66,1.33Z"/>
      <path class="cls-3" d="M91.67,170.74c-.27,0-.54-.06-.78-.19-.83-.43-1.16-1.45-.73-2.28,0,0,0,0,0,0,10.13-19.55,34.09-27.31,53.76-17.43,.84,.42,1.18,1.44,.75,2.28s-1.44,1.18-2.28,.75h0c-18.01-9.05-39.95-1.94-49.22,15.96-.29,.56-.87,.91-1.51,.91Z"/>
      <path class="cls-3" d="M120.44,191.87c-.58,0-1.13-.3-1.44-.79-2.38-3.8-1.24-8.8,2.56-11.19,2.98-1.87,6.82-1.61,9.52,.65,.72,.6,.81,1.67,.21,2.39-.6,.72-1.67,.81-2.39,.21h0c-1.99-1.67-4.97-1.42-6.64,.58-1.32,1.57-1.47,3.81-.38,5.55,.5,.79,.26,1.84-.53,2.34-.27,.17-.58,.26-.91,.26Z"/>
      <path class="cls-3" d="M130.24,140.35c-1.45-.13-2.9-.23-4.37-.23-15.47,0-29.93,7.67-38.6,20.47-.55,.76-.38,1.82,.38,2.37s1.82,.38,2.37-.38c.02-.03,.04-.05,.05-.08,9.91-14.64,27.73-21.76,45-17.99-1.69-1.29-3.31-2.68-4.84-4.16Z"/>
      <path class="cls-3" d="M124.31,133.63c-15.97,.42-30.88,8.07-40.54,20.8-.57,.74-.43,1.81,.31,2.38,.74,.57,1.81,.43,2.38-.31,9.36-12.33,23.97-19.56,39.45-19.51,.38,0,.76,.03,1.15,.04-.96-1.1-1.88-2.24-2.75-3.4Z"/>
      <path class="cls-6" d="M152.8,147.25c-10.04-3.42-18.72-9.97-24.76-18.68-.58,1.1-1.2,2.18-1.86,3.23,6.41,8.68,15.31,15.19,25.52,18.67,.18,.06,.36,.09,.55,.09,.94,0,1.7-.76,1.7-1.7,0-.73-.46-1.37-1.15-1.6Z"/>
      <path class="cls-6" d="M164.16,106.53c-.46,0-.9-.19-1.22-.52-3.12-3.22-3.03-8.35,.18-11.47,3.14-3.05,8.14-3.05,11.28,0,.69,.63,.74,1.71,.11,2.4-.63,.69-1.71,.74-2.4,.11-.02-.02-.05-.04-.07-.07-1.88-1.8-4.87-1.73-6.67,.15-1.74,1.82-1.74,4.69,0,6.52,.65,.67,.63,1.75-.04,2.4-.32,.31-.74,.48-1.18,.48Z"/>
      <path class="cls-6" d="M159.47,110.91c-.47,0-.91-.19-1.23-.53-5.53-5.81-5.31-15,.5-20.53,5.57-5.3,14.3-5.35,19.92-.1,.69,.64,.72,1.71,.08,2.4s-1.71,.72-2.4,.08h0c-4.5-4.19-11.54-3.94-15.73,.56-4.01,4.31-3.97,10.99,.08,15.25,.65,.68,.62,1.75-.05,2.4-.32,.3-.74,.47-1.18,.47h0Z"/>
      <path class="cls-6" d="M154.8,115.3c-.47,0-.91-.19-1.23-.53-7.96-8.37-7.63-21.62,.74-29.58,2.48-2.36,5.49-4.07,8.79-4.99,.9-.25,1.84,.27,2.09,1.18,.25,.9-.27,1.84-1.18,2.09h0c-9.32,2.6-14.77,12.27-12.16,21.59,.77,2.76,2.21,5.29,4.19,7.37,.65,.68,.62,1.75-.06,2.4-.32,.3-.74,.47-1.17,.47h0Z"/>
      <path class="cls-6" d="M151.59,121.15c-.42,0-.83-.16-1.14-.44-11.24-10.11-12.15-27.42-2.04-38.66,3.39-3.76,7.75-6.51,12.6-7.94,.88-.33,1.86,.12,2.19,1,.33,.88-.12,1.86-1,2.19-.07,.03-.15,.05-.23,.07-12.7,3.75-19.96,17.08-16.21,29.78,1.25,4.25,3.66,8.08,6.96,11.04,.69,.63,.74,1.71,.11,2.4-.32,.35-.77,.55-1.25,.55v.02Z"/>
      <path class="cls-6" d="M153.55,130.33c-.28,0-.56-.07-.81-.2-16.44-8.85-22.58-29.35-13.73-45.79,3.85-7.15,10.15-12.68,17.75-15.57,.89-.31,1.85,.16,2.16,1.05,.3,.85-.12,1.78-.96,2.13-15.7,5.96-23.59,23.52-17.63,39.22,2.6,6.84,7.57,12.51,14.01,15.98,.83,.44,1.14,1.47,.69,2.3-.3,.55-.87,.89-1.5,.89h0Z"/>
      <path class="cls-6" d="M133.24,90.68c2.67-9.81,9.28-18.08,18.26-22.84,.83-.43,1.16-1.45,.73-2.29-.43-.83-1.45-1.16-2.29-.73-.01,0-.02,.01-.04,.02-8.23,4.37-14.68,11.45-18.26,20.05,.64,1.9,1.17,3.83,1.59,5.79Z"/>
      <path class="cls-6" d="M155.6,134.75c-10.39-4.02-18.41-12.51-21.85-23.1-.33,1.97-.77,3.93-1.3,5.86,4.42,9.37,12.28,16.68,21.94,20.41,.88,.31,1.86-.15,2.17-1.03,.3-.85-.12-1.8-.95-2.14Z"/>
      <path class="cls-6" d="M130.09,81.04c3.91-7.81,10.08-14.26,17.71-18.5,.83-.43,1.16-1.46,.73-2.29-.43-.83-1.46-1.16-2.29-.73-.03,.02-.06,.03-.09,.05-7.47,4.15-13.65,10.27-17.88,17.68,.66,1.23,1.26,2.49,1.82,3.78Z"/>
      <path class="cls-6" d="M155.92,141.67c-10.56-3.26-19.46-10.45-24.86-20.1-.5,1.33-1.05,2.63-1.64,3.9,5.92,9.3,14.96,16.19,25.5,19.44,.16,.05,.33,.08,.5,.08,.94,0,1.7-.76,1.7-1.69,0-.75-.48-1.41-1.2-1.63h0Z"/>
      <path class="cls-6" d="M181.35,87.51c-.41,0-.8-.15-1.11-.41-2.76-2.4-6.21-3.87-9.86-4.2-.93-.08-1.62-.91-1.54-1.84,0,0,0,0,0,0,.07-.92,.88-1.61,1.8-1.54,.01,0,.03,0,.04,0,4.36,.39,8.48,2.15,11.78,5.02,.71,.61,.79,1.69,.17,2.4-.32,.37-.79,.59-1.28,.59h0Z"/>
      <path class="cls-2" d="M15.92,56.38h-.22c-.93-.07-1.65-.85-1.63-1.78,.02-.9,.76-1.62,1.66-1.63h.2c2.6,.01,4.72-2.09,4.73-4.7,0-1.22-.47-2.4-1.32-3.28-.65-.68-.63-1.75,.05-2.4,.68-.65,1.75-.63,2.4,.05,1.45,1.51,2.26,3.52,2.26,5.62,0,4.49-3.64,8.12-8.13,8.13Z"/>
      <path class="cls-2" d="M15.92,62.8h-.2c-.94-.07-1.64-.89-1.57-1.83,.07-.94,.89-1.64,1.83-1.57,6.13-.04,11.08-5.02,11.08-11.15,0-2.89-1.12-5.67-3.14-7.74-.65-.68-.62-1.76,.05-2.4,.67-.64,1.74-.63,2.39,.04,2.63,2.71,4.1,6.33,4.09,10.11,0,8.03-6.51,14.54-14.54,14.55Z"/>
      <path class="cls-2" d="M15.92,69.23c-.9,0-1.8-.07-2.7-.19-.93-.13-1.57-1-1.44-1.93,.13-.91,.96-1.55,1.87-1.45,.75,.1,1.51,.16,2.26,.17,9.7-.01,17.56-7.87,17.57-17.58,.01-4.87-2.01-9.52-5.58-12.82-.69-.64-.72-1.72-.08-2.4,.64-.69,1.72-.72,2.4-.08,4.26,3.94,6.68,9.5,6.66,15.3-.01,11.58-9.39,20.96-20.97,20.97Z"/>
      <path class="cls-2" d="M15.92,75.66c-.99,0-1.97-.05-2.96-.16-.93-.1-1.61-.94-1.51-1.87,0,0,0,0,0,0,.11-.92,.94-1.59,1.87-1.51,.86,.1,1.73,.15,2.6,.15,13.25-.02,23.98-10.75,24-24,0-7.17-3.2-13.97-8.74-18.52-.72-.6-.83-1.67-.23-2.39,.6-.72,1.67-.83,2.39-.23,6.33,5.2,9.99,12.96,9.98,21.15-.02,15.12-12.27,27.38-27.4,27.4Z"/>
      <path class="cls-2" d="M21.18,88.14c-.94,0-1.7-.77-1.69-1.71,0-.85,.63-1.56,1.47-1.68,18.21-2.56,31.77-18.11,31.81-36.5,0-10.95-4.86-21.33-13.29-28.32-.72-.6-.82-1.67-.22-2.39,.6-.72,1.67-.82,2.39-.22,9.2,7.64,14.52,18.98,14.51,30.94-.06,20.08-14.87,37.07-34.75,39.87-.08,0-.16,.01-.23,.01Z"/>
      <path class="cls-2" d="M29.36,92.88c-.94,0-1.7-.76-1.7-1.7,0-.74,.48-1.4,1.19-1.62,22.8-7.14,35.5-31.41,28.36-54.22-1.97-6.29-5.35-12.04-9.88-16.83-.63-.69-.59-1.77,.11-2.4,.68-.62,1.72-.59,2.36,.06,17.73,18.71,16.93,48.25-1.78,65.97-5.16,4.89-11.37,8.53-18.15,10.66-.16,.05-.34,.08-.51,.08Z"/>
      <path class="cls-2" d="M37.67,96.42c-.94,0-1.7-.76-1.7-1.69,0-.66,.38-1.27,.98-1.55,17.48-8.2,28.66-25.74,28.71-45.05-.01-11.4-3.93-22.45-11.1-31.3-.59-.73-.48-1.8,.25-2.39,.73-.59,1.8-.48,2.39,.25h0c7.67,9.46,11.85,21.27,11.87,33.45-.05,20.63-12,39.37-30.67,48.13-.22,.1-.47,.16-.72,.16Z"/>
      <path class="cls-2" d="M49.74,48.26c.04-10.62-4.95-20.64-13.46-27-.73-.59-1.8-.46-2.39,.27s-.46,1.8,.27,2.39c.02,.02,.05,.04,.07,.05,7.65,5.72,12.14,14.73,12.11,24.29-.03,15.85-12.21,29.03-28.01,30.3-.18,.01-.35,.03-.53,.04-.23,.01-.47,.02-.71,.03-.47,.02-.95,.04-1.43,.04-.94,0-1.7,.76-1.7,1.7,0,.85,.63,1.57,1.47,1.68,.08,0,.15,.02,.23,.02,.28,0,.55-.01,.83-.02,0,0,1.12-.03,1.32-.04,.34-.02,1.44-.11,1.44-.11,17.29-1.73,30.46-16.27,30.48-33.64Z"/>
    </g>
  </g>
  <g>
    <path class="cls-4" d="M132.48,198.09c-.52,.51-.69,1.01-1.2,1.01-.25,0-.59-.34-.49-.54,.2-.37,.49-.8,.96-.86,.22-.03,.47,.24,.73,.38Z"/>
    <path class="cls-4" d="M2.16,68.23c-.26,.35-.36,.93-.98,.93-.28,0-.57-.24-.39-.55,.24-.43,.54-.88,1.11-.91,.35-.02,.28,.27,.27,.54Z"/>
    <path class="cls-4" d="M136.1,194.13c-.32-.07-.66-.36-.59-.5,.21-.37,.58-.66,.88-.98,.19,.19,.55,.38,.54,.56-.03,.48-.5,.67-.83,.92Z"/>
    <path class="cls-4" d="M146.31,35.72c-.03,.45-.37,.6-.56,.56-.48-.12-.69-.58-.74-1.02-.02-.16,.4-.53,.52-.5,.48,.14,.54,.67,.77,.96Z"/>
    <path class="cls-4" d="M86.69,185.09c-.55-.04-.26-.62-.43-.92-.25-.43,.17-.58,.46-.61,.54-.06,.45,.43,.56,.75,.15,.48-.09,.66-.59,.78Z"/>
    <path class="cls-4" d="M148.76,39.61c.05,.46-.36,.5-.54,.49-.55-.03-.58-.6-.73-.97-.13-.31,.34-.48,.5-.47,.55,.05,.54,.63,.77,.95Z"/>
    <path class="cls-4" d="M159.01,59.85c-.24,.18-.53,.53-.65,.47-.42-.18-.72-.58-.81-1.02-.05-.27,.32-.5,.55-.45,.49,.09,.57,.62,.91,1Z"/>
    <path class="cls-4" d="M69.1,1.4c-.44,.17-.47-.17-.52-.41-.15-.63,.38-.56,.73-.69,.4-.15,.63,.05,.69,.4,.14,.77-.69,.37-.89,.7Z"/>
    <path class="cls-4" d="M72.2,.8c-.15,.26-.17,.69-.64,.46-.32-.15-.93,.09-.84-.6,.04-.3,.15-.69,.6-.43,.3,.17,.91-.11,.88,.56Z"/>
    <path class="cls-4" d="M30.77,15.27c-.16,.28-.14,.82-.63,.84-.26,.01-.72-.19-.51-.6,.16-.31,.11-.91,.71-.83,.26,.03,.56,.14,.43,.59Z"/>
    <path class="cls-4" d="M129.24,20.59c-.06,.23-.15,.58-.48,.45-.37-.14-1.01,.02-1.02-.63,0-.22,.13-.62,.45-.53,.39,.11,.94,.08,1.04,.71Z"/>
    <path class="cls-4" d="M76.68,146.77c.12,.67-.13,.91-.48,.89-.59-.04-.41-.63-.53-.96-.15-.45,.29-.57,.59-.54,.5,.05,.39,.53,.42,.62Z"/>
    <path class="cls-4" d="M55.83,2.07c-.49,.13-.71-.12-.71-.45,0-.65,.66-.47,1.01-.66,.37-.19,.42,.23,.43,.46,.04,.57-.42,.58-.73,.64Z"/>
    <path class="cls-4" d="M67.07,1.89c-.37-.06-.81,.1-.81-.4,0-.45,.29-.62,.74-.59,.38,.03,.79-.02,.8,.51,.02,.65-.59,.23-.74,.48Z"/>
    <path class="cls-4" d="M164.97,139.85c-.55-.05-.47-.46-.45-.81,.02-.36,.04-.74,.59-.68,.53,.05,.54,.39,.42,.77-.09,.3,0,.78-.56,.73Z"/>
    <path class="cls-4" d="M150.55,43.84c-.06,.33-.32,.59-.55,.53-.48-.13-.64-.61-.72-1.06-.06-.35,.32-.5,.54-.47,.56,.07,.51,.65,.72,1Z"/>
    <path class="cls-4" d="M172.53,70.21c.25,.25,.91,.17,.84,.8-.03,.22-.17,.61-.5,.43-.35-.19-.94-.18-.92-.77,0-.27,.18-.52,.59-.45Z"/>
    <path class="cls-4" d="M166.44,129.92c-.22,.23,.05,.89-.61,.82-.38-.04-.58-.32-.44-.69,.11-.31,.04-.81,.53-.81,.31,0,.64,.18,.52,.68Z"/>
    <path class="cls-4" d="M167.79,125.39c-.32,.24,.04,1.03-.71,.91-.2-.03-.62-.11-.43-.51,.16-.36-.01-1.02,.7-.93,.2,.03,.59,.08,.45,.52Z"/>
    <path class="cls-4" d="M15.19,29.08c-.32-.03-.57-.26-.56-.49,.02-.48,.42-.77,.82-.92,.27-.11,.57,.21,.56,.44-.04,.47-.49,.69-.81,.96Z"/>
    <path class="cls-4" d="M191.64,96.22c-.14,.25,.03,.86-.64,.76-.41-.06-.52-.36-.41-.72,.1-.32,.08-.8,.6-.77,.38,.02,.58,.24,.45,.72Z"/>
    <path class="cls-4" d="M11.9,32.24c-.29-.03-.6-.24-.5-.46,.17-.38,.45-.82,.92-.87,.22-.03,.53,.29,.44,.56-.12,.38-.4,.69-.86,.76Z"/>
    <path class="cls-4" d="M192.61,74.32c-.12,.2,0,.68-.43,.49-.37-.16-.99-.06-1.03-.68-.01-.24,.19-.61,.46-.51,.36,.14,.98,.04,.99,.7Z"/>
    <path class="cls-4" d="M17.17,26.04c.26,.15,.61,.31,.44,.59-.2,.33-.53,.65-.88,.81-.18,.08-.56-.32-.49-.54,.13-.43,.49-.73,.93-.86Z"/>
    <path class="cls-4" d="M10.6,86.84c.45,.17,.67,.58,.82,.96,.1,.24-.26,.59-.45,.57-.49-.04-.68-.52-.83-.91-.1-.28,.23-.44,.46-.62Z"/>
    <path class="cls-4" d="M9.92,85.09c.4,.26,.53,.71,.6,1.12,.04,.26-.38,.52-.56,.46-.47-.14-.56-.65-.62-1.07-.04-.29,.32-.38,.58-.51Z"/>
    <path class="cls-4" d="M47.09,2.34c.25,.27,.88,.14,.86,.72,0,.27-.14,.64-.48,.5-.37-.15-.99-.14-.96-.77,.01-.25,.19-.53,.57-.45Z"/>
    <path class="cls-4" d="M37.12,8.89c-.12,.43-.56,.49-.92,.59-.3,.08-.54-.19-.53-.48,.03-.58,.62-.58,.99-.71,.26-.09,.44,.24,.45,.6Z"/>
    <path class="cls-4" d="M126.39,203.81c-.35,0-.61-.26-.58-.48,.06-.47,.57-.65,.87-.97,.19,.18,.54,.37,.53,.55-.02,.48-.51,.64-.82,.9Z"/>
    <path class="cls-4" d="M77.15,149.36c.1,.47-.22,.6-.53,.6-.53,0-.42-.47-.49-.8-.1-.46,.12-.74,.54-.71,.59,.03,.22,.67,.48,.92Z"/>
    <path class="cls-4" d="M157.45,56.6c.14,.4,.36,.78,.4,1.19,.03,.29-.38,.49-.59,.44-.47-.11-.47-.59-.53-.99-.07-.47,.33-.46,.71-.64Z"/>
    <path class="cls-4" d="M66.77,111.2c.4,.27,.34,.77,.47,1.15,.1,.3-.33,.45-.56,.43-.56-.05-.47-.56-.55-.94-.09-.47,.31-.47,.64-.64Z"/>
    <path class="cls-4" d="M159.65,155.57c-.07,.44-.55,.46-.86,.66-.38,.24-.52-.12-.57-.34-.17-.69,.53-.66,.86-.86,.27-.17,.43,.23,.57,.54Z"/>
    <path class="cls-4" d="M148.78,165.35c-.32-.14-.74-.17-.54-.54,.19-.35,.12-1.01,.78-.91,.17,.02,.64,.11,.44,.49-.18,.35-.2,.89-.69,.96Z"/>
    <path class="cls-4" d="M81.54,167.09c.11,.46-.26,.59-.52,.59-.56,0-.45-.6-.64-.92-.21-.34,.09-.46,.38-.51,.72-.14,.56,.52,.78,.84Z"/>
    <path class="cls-4" d="M82.47,169.32c.09,.44-.33,.43-.51,.45-.65,.08-.56-.58-.73-.91-.23-.44,.34-.56,.53-.55,.59,.03,.42,.7,.72,1.01Z"/>
    <path class="cls-4" d="M73.76,1.93c-.17-.31-.91,.11-.86-.56,.02-.34,.24-.61,.67-.49,.36,.1,.91,.02,.79,.66-.05,.25-.13,.59-.59,.38Z"/>
    <path class="cls-4" d="M76.61,1.94c-.11,.46-.26,.77-.67,.58-.3-.14-.83,0-.85-.48-.02-.4,.26-.69,.73-.56,.32,.09,.71,.12,.79,.46Z"/>
    <path class="cls-4" d="M146,174.91c.45,.05,.51,.29,.37,.67-.13,.36-.06,.87-.71,.75-.55-.1-.27-.47-.26-.74,.01-.38,.06-.76,.6-.68Z"/>
    <path class="cls-4" d="M44.96,1.68c.37,.15,.9-.19,.9,.41,0,.36-.18,.66-.7,.57-.39-.06-.7-.11-.77-.56-.09-.65,.49-.16,.56-.42Z"/>
    <path class="cls-4" d="M85.3,178.33c-.66,0-.58-.56-.7-.9-.17-.46,.28-.59,.55-.56,.55,.07,.4,.65,.56,1,.22,.48-.3,.3-.41,.46Z"/>
    <path class="cls-4" d="M77.95,2.88c-.19-.12-.69,.19-.61-.39,.07-.56,.47-.56,.9-.49,.27,.05,.7-.12,.64,.42-.06,.6-.48,.54-.93,.46Z"/>
    <path class="cls-4" d="M85.58,2.52c-.19,.29-.24,.72-.7,.44-.29-.18-.92-.02-.74-.7,.06-.22-.03-.64,.43-.4,.35,.19,.93,.1,1.02,.66Z"/>
    <path class="cls-4" d="M145.09,178.56c-.46-.02-.31-.37-.26-.68,.07-.34,.03-.79,.57-.74,.34,.03,.64,.19,.44,.63-.15,.33-.03,.89-.75,.79Z"/>
    <path class="cls-4" d="M86.63,181.9c.26,.63,.07,.87-.31,.88-.49,.01-.46-.41-.55-.76-.13-.49,.09-.71,.52-.71,.59,0,.31,.53,.34,.59Z"/>
    <path class="cls-4" d="M51.76,2.61c.37-.05,.56,.19,.57,.46,0,.61-.59,.62-.97,.77-.3,.12-.48-.23-.47-.52,.02-.55,.61-.45,.88-.71Z"/>
    <path class="cls-4" d="M144.5,182c-.25,.3-.05,1-.75,.93-.27-.03-.55-.19-.41-.54,.14-.34,.07-.89,.67-.88,.27,0,.57,.06,.49,.49Z"/>
    <path class="cls-4" d="M50.13,3.84c.03,.51-.31,.5-.63,.44-.35-.07-.9,.09-.84-.56,.02-.21,.04-.65,.45-.43,.34,.19,.99-.17,1.02,.55Z"/>
    <path class="cls-4" d="M88.04,186.72c.06,.5-.38,.49-.55,.48-.52-.05-.53-.54-.6-.93-.07-.37,.21-.53,.47-.53,.67,.02,.37,.73,.67,.98Z"/>
    <path class="cls-4" d="M86.94,4.52c.26,.1,.64,.18,.51,.51-.13,.34-.05,.9-.63,.93-.29,.02-.55-.07-.46-.48,.08-.39,.05-.84,.57-.97Z"/>
    <path class="cls-4" d="M40.15,7.32c-.32-.12-.61-.36-.47-.59,.2-.33,.55-.63,.9-.76,.22-.09,.56,.31,.5,.54-.12,.45-.54,.67-.94,.82Z"/>
    <path class="cls-4" d="M167.41,67.45c-.32-.35-.68-.64-.89-1.01-.08-.14,.18-.56,.48-.49,.4,.09,.74,.36,.84,.79,.07,.29-.21,.46-.43,.71Z"/>
    <path class="cls-4" d="M38.54,7.3c.4-.1,.59,.15,.62,.41,.07,.64-.57,.58-.91,.79-.4,.26-.47-.23-.51-.38-.18-.69,.59-.52,.8-.82Z"/>
    <path class="cls-4" d="M86.65,9.63c-.25,.26-.08,.88-.64,.89-.17,0-.73-.03-.52-.56,.14-.35,.1-.88,.67-.86,.24,0,.58,.09,.48,.53Z"/>
    <path class="cls-4" d="M169.69,68.24c-.11,.32-.3,.63-.58,.53-.37-.13-.78-.37-.87-.79-.06-.27,.21-.59,.48-.54,.45,.07,.78,.4,.96,.81Z"/>
    <path class="cls-4" d="M139.28,190.88c-.29-.07-.59-.2-.56-.49,.04-.46,.42-.77,.77-1.03,.04-.03,.53,.32,.53,.49,0,.48-.4,.75-.74,1.03Z"/>
    <path class="cls-4" d="M133.26,196.02c.29,.14,.63,.35,.51,.59-.19,.38-.42,.87-.97,.83-.16-.01-.44-.37-.41-.48,.14-.43,.43-.78,.86-.95Z"/>
    <path class="cls-4" d="M32.04,13.26c-.35,.21-.25,.94-.89,.83-.22-.04-.63-.18-.43-.53,.2-.35,.27-.92,.82-.9,.21,.01,.49,.25,.5,.6Z"/>
    <path class="cls-4" d="M.34,69.78c.65,.03,.71,.3,.73,.72,.03,.5-.26,.68-.61,.71-.43,.03-.42-.39-.45-.68-.04-.37,.02-.72,.33-.75Z"/>
    <path class="cls-4" d="M182.35,70.19c-.14,.51-.65,.38-1,.46-.48,.12-.53-.32-.46-.61,.12-.56,.64-.38,1.02-.43,.41-.05,.4,.27,.44,.58Z"/>
    <path class="cls-4" d="M129.52,200.71c-.13-.14-.42-.36-.39-.45,.17-.42,.51-.78,.93-.91,.23-.07,.56,.3,.49,.54-.12,.44-.49,.73-1.03,.82Z"/>
    <path class="cls-4" d="M92.22,15.76c.46,.16,.96,.16,1.04,.61,.03,.17-.13,.73-.56,.56-.34-.14-.91-.06-.94-.59-.01-.21,.07-.66,.46-.57Z"/>
    <path class="cls-4" d="M95.25,200.67c.09,.48-.12,.61-.43,.59-.67-.03-.53-.63-.63-1-.08-.33,.23-.46,.53-.42,.56,.07,.46,.57,.53,.83Z"/>
    <path class="cls-4" d="M29.2,18.22c-.24-.13-.64-.13-.56-.5,.08-.39,.18-.85,.61-.99,.27-.09,.65,.16,.61,.39-.08,.41-.19,.89-.66,1.1Z"/>
    <path class="cls-4" d="M121.88,207.13c-.29,.48-.7,.68-1.15,.73-.27,.03-.4-.3-.38-.49,.05-.57,.63-.57,1.01-.73,.09-.04,.35,.32,.53,.5Z"/>
    <path class="cls-4" d="M135.72,18.63c-.05,.56-.38,.59-.77,.58-.42,0-.69-.11-.66-.6,.03-.44,.32-.51,.65-.44,.31,.07,.76-.02,.78,.45Z"/>
    <path class="cls-4" d="M98.78,18.39c.18,.3,.87-.03,.85,.56,0,.3-.25,.66-.63,.51-.32-.12-.9,0-.89-.56,0-.28,.2-.62,.67-.51Z"/>
    <path class="cls-4" d="M133.51,18.9c-.02,.71-.59,.6-.92,.74-.46,.19-.58-.31-.55-.56,.07-.51,.62-.48,.99-.59,.39-.12,.37,.28,.48,.42Z"/>
    <path class="cls-4" d="M118.74,208.89c-.35,0-.46-.26-.47-.52-.01-.59,.57-.52,.89-.68,.33-.17,.51,.14,.53,.43,.05,.67-.6,.53-.95,.77Z"/>
    <path class="cls-4" d="M100.92,19.03c.48,.24,1.04-.02,.95,.61-.09,.65-.59,.4-.96,.41-.34,0-.68-.06-.56-.52,.1-.38,.29-.72,.57-.5Z"/>
    <path class="cls-4" d="M107.95,20.06c-.3-.05-.71,.11-.73-.4-.03-.67,.5-.52,.87-.57,.39-.05,.62,.12,.63,.53,.02,.65-.5,.35-.78,.44Z"/>
    <path class="cls-4" d="M103.95,209.81c.06,.64-.45,.52-.81,.6-.37,.07-.65-.07-.65-.46,0-.7,.69-.39,1.03-.59,.42-.25,.31,.26,.43,.45Z"/>
    <path class="cls-4" d="M3.35,74.53c-.02,.37-.34,.59-.52,.55-.41-.11-.62-.52-.75-.9-.12-.34,.26-.55,.46-.54,.53,.02,.6,.56,.81,.9Z"/>
    <path class="cls-4" d="M194.35,73.75c.49-.09,.61,.32,.61,.56,0,.55-.59,.41-.91,.56-.39,.19-.61-.16-.57-.5,.06-.49,.58-.45,.88-.62Z"/>
    <path class="cls-4" d="M117.15,18.87c.39,.04,.76-.04,.75,.46-.01,.59-.46,.45-.79,.46-.36,.01-.78,.05-.72-.52,.06-.6,.57-.25,.77-.4Z"/>
    <path class="cls-4" d="M9.91,83.73c.06,.34-.02,.56-.38,.59-.69,.05-.61-.51-.71-.91-.11-.46,.23-.59,.53-.56,.54,.05,.37,.61,.55,.89Z"/>
    <path class="cls-4" d="M193.93,85.97c-.24-.26-.79-.21-.57-.68,.16-.33,.08-.91,.62-.92,.27,0,.68,.18,.49,.63-.14,.33-.11,.79-.53,.97Z"/>
    <path class="cls-4" d="M193.67,87.23c-.06,.3-.02,.8-.65,.74-.26-.02-.65-.08-.42-.46,.19-.33-.02-.93,.58-.97,.35-.02,.63,.16,.49,.69Z"/>
    <path class="cls-4" d="M12.17,88.63c.34,.24,.8,.44,.79,.95,0,.21-.24,.57-.55,.45-.37-.15-.73-.44-.79-.87-.04-.27,.18-.5,.55-.53Z"/>
    <path class="cls-4" d="M101.71,210.42c-.1,.49-.59,.36-.95,.44-.44,.1-.53-.19-.52-.55,.03-.66,.56-.42,.91-.49,.43-.09,.55,.17,.55,.61Z"/>
    <path class="cls-4" d="M15.41,91.42c.51,.45,1.04,.57,1.06,1.08,0,.25-.31,.55-.57,.44-.37-.16-.86-.35-.88-.84-.01-.22,.25-.45,.39-.68Z"/>
    <path class="cls-4" d="M126.98,19.97c-.08,.41-.25,.68-.65,.51-.29-.12-.82,.12-.85-.46-.02-.5,.32-.58,.73-.57,.4,.01,.72,.09,.77,.52Z"/>
    <path class="cls-4" d="M191.28,93.66s-.45-.57,.26-.46c.49,.08,.49,.41,.46,.81-.04,.42-.14,.72-.63,.64-.46-.08-.44-.38-.08-.99Z"/>
    <path class="cls-4" d="M20.04,95.32c-.19,.36-.33,.67-.64,.54-.38-.15-.77-.43-.81-.86-.02-.23,.31-.54,.58-.41,.34,.17,.61,.49,.88,.73Z"/>
    <path class="cls-4" d="M189.73,99.73c-.23,.4-.54,.73-.99,.85-.11,.03-.43-.29-.42-.44,.02-.46,.43-.69,.79-.84,.28-.12,.47,.18,.63,.44Z"/>
    <path class="cls-4" d="M25.14,22.01c0,.5-.43,.45-.75,.55-.42,.13-.73,.05-.8-.42-.1-.64,.49-.34,.73-.51,.49-.34,.61,.07,.82,.38Z"/>
    <path class="cls-4" d="M22.83,22.53c-.13,.47-.58,.47-.95,.53-.42,.06-.61-.36-.54-.6,.12-.43,.62-.42,1.01-.48,.38-.06,.4,.27,.48,.56Z"/>
    <path class="cls-4" d="M139.99,23.57c.04,.46-.37,.43-.56,.43-.57,0-.47-.58-.62-.91-.15-.32,.24-.53,.47-.51,.59,.04,.51,.64,.71,.99Z"/>
    <path class="cls-4" d="M23.77,99.59c.26,.32,.56,.63,.79,1,.03,.05-.4,.52-.54,.49-.43-.11-.75-.48-.85-.91-.06-.28,.28-.42,.6-.57Z"/>
    <path class="cls-4" d="M25.17,101.3c.49,.18,.77,.54,.97,.92,.04,.08-.33,.39-.5,.59-.33-.29-.68-.57-.96-.91-.03-.03,.32-.38,.5-.6Z"/>
    <path class="cls-4" d="M140.96,25.65c-.06,.35-.34,.5-.59,.46-.55-.1-.58-.65-.68-1.06-.07-.28,.28-.35,.48-.35,.63,0,.49,.67,.79,.96Z"/>
    <path class="cls-4" d="M186.1,102.75c.29,.09,.64,.16,.58,.49-.08,.42-.24,.91-.75,.98-.21,.03-.64-.17-.55-.43,.13-.39,.32-.83,.73-1.04Z"/>
    <path class="cls-4" d="M142.89,29.69c.02,.42-.24,.57-.51,.57-.55,.01-.56-.53-.73-.86-.17-.33,.12-.51,.41-.54,.67-.08,.5,.64,.83,.83Z"/>
    <path class="cls-4" d="M63.24,105.4c.31,.26,.96,.17,.95,.78,0,.21-.18,.63-.49,.49-.36-.17-.97-.18-.95-.79,0-.22,.01-.6,.48-.49Z"/>
    <path class="cls-4" d="M11.33,33.23c-.35,.24-.37,.89-.97,.81-.18-.03-.51-.22-.41-.47,.15-.4,.33-.88,.85-.92,.26-.02,.49,.24,.53,.57Z"/>
    <path class="cls-4" d="M40.63,107.32c-.37-.02-.8,.06-.72-.52,.08-.55,.54-.34,.85-.39,.35-.05,.63,.04,.63,.48,0,.64-.5,.32-.76,.42Z"/>
    <path class="cls-4" d="M43.72,106.8c-.05,.59-.51,.42-.83,.48-.34,.06-.65,.05-.65-.43,0-.51,.33-.58,.72-.61,.44-.04,.67,.18,.76,.57Z"/>
    <path class="cls-4" d="M181.87,109.71c-.29-.08-.58-.29-.57-.53,.02-.48,.48-.73,.86-.88,.23-.09,.59,.24,.57,.46-.04,.48-.55,.65-.87,.95Z"/>
    <path class="cls-4" d="M178.1,112.05c-.35,.02-.58-.14-.59-.46-.02-.63,.59-.61,.95-.77,.28-.12,.48,.26,.47,.5,0,.52-.58,.47-.84,.73Z"/>
    <path class="cls-4" d="M174.27,114.8c-.32-.08-.59-.29-.51-.54,.14-.42,.49-.75,.96-.8,.22-.02,.43,.25,.4,.47-.06,.49-.5,.67-.86,.88Z"/>
    <path class="cls-4" d="M171.99,117.17c-.29,.33-.47,.82-.95,.89-.21,.03-.58-.18-.49-.5,.11-.39,.38-.74,.81-.83,.28-.06,.48,.18,.62,.43Z"/>
    <path class="cls-4" d="M149.08,40.69c.53,.04,.49,.59,.65,.95,.16,.35-.21,.48-.43,.51-.67,.08-.56-.59-.75-.93-.18-.33,.19-.42,.52-.53Z"/>
    <path class="cls-4" d="M170.48,118.97c-.17,.37-.24,.86-.64,.99-.27,.08-.69-.17-.57-.57,.11-.36,.22-.86,.68-.93,.18-.03,.51,.17,.54,.51Z"/>
    <path class="cls-4" d="M169.47,121.12c-.29,.29-.16,.98-.84,.87-.31-.05-.49-.24-.34-.57,.15-.35,.17-.85,.73-.82,.29,.02,.51,.16,.46,.52Z"/>
    <path class="cls-4" d="M70.91,127.82c-.43-.15-.52-.58-.62-.94-.1-.33,.21-.53,.49-.48,.47,.08,.6,.53,.69,.91,.07,.32-.27,.42-.56,.51Z"/>
    <path class="cls-4" d="M72.66,129.23c-.03,.45-.3,.59-.57,.54-.46-.09-.59-.54-.72-.91-.11-.34,.26-.47,.48-.48,.63-.04,.47,.67,.81,.85Z"/>
    <path class="cls-4" d="M73.5,131.63c.03,.14-.18,.31-.48,.31-.76,0-.5-.72-.7-1.1-.14-.26,.24-.31,.44-.33,.67-.05,.6,.5,.74,1.12Z"/>
    <path class="cls-4" d="M73.51,134.18c-.67-.1-.36-.73-.54-1.09-.15-.3,.22-.34,.41-.36,.74-.05,.54,.6,.65,.97,.11,.37-.23,.42-.52,.48Z"/>
    <path class="cls-4" d="M165.23,141.31c-.25,.21,.22,.9-.5,.85-.4-.02-.5-.31-.49-.67,.01-.39,.07-.77,.52-.8,.32-.02,.66,.11,.47,.62Z"/>
    <path class="cls-4" d="M4.96,51.48c.08,.49-.29,.49-.52,.49-.56,0-.52-.54-.6-.89-.1-.41,.23-.63,.57-.55,.47,.11,.39,.65,.55,.95Z"/>
    <path class="cls-4" d="M75.25,141.67c.53-.06,.58,.33,.63,.69,.06,.37,.08,.75-.47,.76-.58,.01-.41-.5-.54-.78-.17-.35-.05-.62,.38-.67Z"/>
    <path class="cls-4" d="M4.52,54.35c-.27-.16-.61-.21-.47-.69,.12-.42,.16-.84,.69-.87,.5-.03,.54,.33,.38,.64-.16,.32,.03,.9-.6,.92Z"/>
    <path class="cls-4" d="M155,52.88c.32,.26,.8,.44,.81,.92,0,.18-.36,.36-.56,.54-.26-.35-.83-.46-.83-.97,0-.24,.23-.49,.58-.49Z"/>
    <path class="cls-4" d="M162.69,151.08c-.28-.08-.6-.15-.49-.52,.12-.39,.03-1.01,.75-.91,.22,.03,.55,.07,.4,.38-.18,.36-.02,.98-.66,1.05Z"/>
    <path class="cls-4" d="M184.64,69.77c-.12,.46-.19,.76-.64,.69-.43-.07-.82-.18-.87-.69-.04-.4,.26-.42,.54-.4,.39,.04,.76,.12,.96,.4Z"/>
    <path class="cls-4" d="M63.3,.35c-.05,.39-.19,.67-.6,.58-.33-.07-.89,.26-.9-.44,0-.44,.3-.53,.64-.47,.3,.06,.76-.16,.86,.34Z"/>
    <path class="cls-4" d="M77.28,153c.73-.07,.56,.52,.7,.84,.18,.4-.04,.58-.45,.58-.53,0-.54-.39-.56-.76-.01-.28-.21-.7,.3-.66Z"/>
    <path class="cls-4" d="M186.14,71.3c-.29-.18-.82-.1-.87-.62-.03-.28,.12-.59,.46-.53,.38,.07,.83,.18,.94,.63,.08,.32-.2,.46-.53,.52Z"/>
    <path class="cls-4" d="M62.02,105.29c-.08,.7-.47,.64-.83,.64-.42,0-.71-.17-.65-.63,.06-.43,.36-.47,.7-.34,.29,.11,.77-.06,.78,.33Z"/>
    <path class="cls-4" d="M54.5,2.29c-.02,.47-.49,.41-.77,.54-.34,.16-.66-.01-.74-.37-.14-.65,.53-.49,.81-.66,.37-.24,.52,.18,.69,.5Z"/>
    <path class="cls-4" d="M80.37,3.09c-.41,.06-.63,.05-.66-.35-.04-.7,.48-.64,.9-.71,.43-.08,.61,.22,.57,.55-.06,.53-.56,.46-.82,.51Z"/>
    <path class="cls-4" d="M162.56,152.23c-.28,.31-.18,.95-.77,.94-.18,0-.65-.15-.48-.5,.17-.36,.12-.99,.74-.95,.18,.01,.57,.1,.51,.51Z"/>
    <path class="cls-4" d="M143.52,184.31c-.23,.24-.07,.87-.68,.74-.22-.05-.6-.21-.43-.54,.17-.32,.1-.9,.63-.9,.37,0,.49,.32,.48,.7Z"/>
    <path class="cls-4" d="M183.75,106.59c.27,.11,.64,.26,.53,.54-.14,.36-.42,.77-.75,.93-.25,.12-.66-.3-.57-.58,.11-.37,.39-.72,.8-.89Z"/>
    <path class="cls-4" d="M188.15,72.64c-.3-.29-.88-.31-.93-.84-.02-.28,.23-.57,.52-.48,.36,.11,.82,.26,.87,.74,.02,.25-.15,.5-.46,.59Z"/>
    <path class="cls-4" d="M145.2,179.86c-.11,.36-.03,.88-.59,.91-.22,.01-.67-.03-.5-.41,.16-.35-.05-1,.64-1,.31,0,.51,.15,.45,.51Z"/>
    <path class="cls-4" d="M86.33,180.06c.13,.51-.28,.44-.49,.44-.5,.02-.53-.37-.58-.75-.04-.38,.04-.67,.46-.68,.75-.02,.27,.76,.61,.98Z"/>
    <path class="cls-4" d="M85.84,11.9c-.02,.38-.1,.77-.57,.78-.37,0-.6-.26-.48-.64,.11-.34-.02-.92,.62-.86,.39,.04,.5,.34,.43,.71Z"/>
    <path class="cls-4" d="M193.08,89.32c-.09,.34-.07,.82-.6,.86-.24,.02-.63-.04-.5-.42,.13-.37,0-.97,.64-1,.32-.02,.46,.22,.46,.57Z"/>
    <path class="cls-4" d="M88.08,14.59c.18,.2,.86-.1,.8,.58-.04,.43-.37,.5-.71,.42-.33-.07-.79-.08-.77-.56,.01-.28,.09-.72,.68-.45Z"/>
    <path class="cls-4" d="M91.1,15.62c-.1,.39-.31,.68-.67,.52-.31-.13-.9-.01-.78-.67,.06-.31,.23-.55,.54-.41,.32,.15,.84,.06,.91,.55Z"/>
    <path class="cls-4" d="M77.06,152.19c-.6,0-.35-.6-.54-.9-.18-.3-.04-.48,.32-.53,.6-.09,.66,.31,.7,.74,.03,.34,0,.65-.48,.7Z"/>
    <path class="cls-4" d="M96.95,18.7c-.38-.15-.85-.16-.89-.71-.03-.35,.18-.56,.49-.42,.33,.15,.89,.07,.91,.63,0,.28-.18,.5-.51,.51Z"/>
    <path class="cls-4" d="M28.77,19.17c-.19,.38-.36,.84-.83,.96-.27,.07-.59-.21-.53-.46,.09-.41,.33-.84,.77-.96,.19-.05,.5,.15,.59,.47Z"/>
    <path class="cls-4" d="M111.03,19.48c.04,.54-.32,.5-.63,.52-.37,.02-.77,.07-.82-.44-.05-.48,.27-.6,.69-.61,.43-.01,.68,.16,.77,.52Z"/>
    <path class="cls-4" d="M190.51,99.2c-.3-.13-.58-.4-.51-.6,.12-.35,.26-.83,.77-.81,.23,0,.59,.02,.44,.47-.13,.4-.33,.74-.7,.94Z"/>
    <path class="cls-4" d="M191.99,92.46c-.28-.1-.67-.07-.54-.47,.11-.36,.02-.89,.5-1,.34-.08,.62,.14,.59,.55-.04,.4-.06,.82-.54,.93Z"/>
    <path class="cls-4" d="M189.61,72.47c.32,.27,.91,.25,.96,.81,.02,.29-.22,.55-.54,.47-.39-.1-.83-.27-.93-.69-.06-.23,.18-.51,.51-.59Z"/>
    <path class="cls-4" d="M66.76,116.86c.1-.49-.06-.99,.6-1,.46,0,.54,.21,.48,.59-.06,.38,.06,.88-.59,.86-.39-.01-.64-.11-.49-.45Z"/>
    <path class="cls-4" d="M167.05,127.59c-.13,.35-.09,.85-.59,.91-.21,.03-.62-.08-.53-.46,.08-.37,.08-.89,.51-1.01,.28-.09,.62,.13,.62,.57Z"/>
    <path class="cls-4" d="M137.78,19.57c-.2,.36-.38,.69-.65,.58-.35-.14-.81-.34-.83-.8-.02-.31,.31-.52,.57-.42,.34,.14,.62,.43,.91,.65Z"/>
    <path class="cls-4" d="M84.43,176.3c-.41-.18-.42-.6-.56-.94-.19-.46,.16-.6,.44-.64,.64-.09,.44,.56,.63,.85,.28,.43-.24,.46-.51,.73Z"/>
    <path class="cls-4" d="M83.6,172.55c.5,.06,.4,.6,.54,.92,.18,.39-.25,.6-.54,.57-.42-.04-.48-.48-.56-.82-.09-.38,.12-.6,.55-.67Z"/>
    <path class="cls-4" d="M131.49,20.03c-.21,.37-.57,.56-.98,.59-.32,.02-.59-.25-.52-.51,.12-.43,.57-.57,.97-.63,.33-.05,.44,.26,.52,.55Z"/>
    <path class="cls-4" d="M27.36,20.89c-.39,.31-.65,.6-.98,.77-.28,.14-.59-.04-.63-.34-.08-.6,.54-.69,.87-.92,.24-.16,.37,.29,.74,.49Z"/>
    <path class="cls-4" d="M138.29,20.57c.49,.09,.64,.52,.73,.89,.07,.3-.28,.5-.54,.47-.49-.05-.57-.56-.71-.9-.11-.27,.2-.45,.52-.46Z"/>
    <path class="cls-4" d="M49.85,106.48c-.49,.06-.86,.03-.85-.5,.02-.63,.55-.28,.84-.39,.37-.14,.59,.02,.65,.43,.12,.76-.53,.24-.64,.45Z"/>
    <path class="cls-4" d="M147.89,167.43c-.36-.03-.65-.19-.48-.5,.18-.33,.01-1.01,.74-.92,.24,.03,.46,.09,.39,.4-.1,.42-.08,.93-.64,1.01Z"/>
    <path class="cls-4" d="M141.19,28.25c-.31-.21-.46-.62-.56-1.02-.09-.36,.28-.46,.49-.49,.59-.08,.51,.52,.67,.83,.19,.37-.14,.55-.6,.68Z"/>
    <path class="cls-4" d="M143.96,31.78c.01,.37-.28,.54-.52,.53-.55-.01-.6-.58-.77-.94-.15-.31,.24-.5,.47-.5,.59-.02,.55,.61,.82,.91Z"/>
    <path class="cls-4" d="M144.52,34.42c-.43-.19-.53-.66-.72-1-.19-.34,.21-.5,.41-.55,.64-.14,.61,.52,.82,.84,.26,.41-.28,.45-.51,.71Z"/>
    <path class="cls-4" d="M27.84,103.82c-.17,.27-.34,.55-.66,.42-.36-.15-.78-.36-.81-.79-.02-.25,.27-.58,.53-.51,.43,.13,.76,.47,.94,.88Z"/>
    <path class="cls-4" d="M8.74,36.94c-.28,.33-.38,.88-.96,.8-.24-.03-.6-.18-.44-.47,.2-.36,.37-.88,.92-.84,.19,.02,.52,.15,.49,.51Z"/>
    <path class="cls-4" d="M147.59,37.61c-.04,.41-.39,.63-.55,.61-.49-.07-.61-.58-.77-.96-.13-.3,.26-.53,.48-.52,.55,.02,.52,.65,.84,.87Z"/>
    <path class="cls-4" d="M7.13,38.67c-.28,.33-.58,.71-1.06,.7-.28,0-.54-.37-.42-.59,.19-.34,.53-.66,.95-.69,.29-.02,.44,.27,.52,.58Z"/>
    <path class="cls-4" d="M80.75,165.07c.01,.38-.26,.47-.54,.45-.57-.04-.49-.59-.64-.93-.14-.33,.15-.5,.45-.5,.68,0,.52,.63,.73,.99Z"/>
    <path class="cls-4" d="M79.98,162.8c.12,.43-.14,.51-.43,.52-.59,.03-.58-.45-.65-.83-.07-.39,.13-.64,.52-.61,.58,.05,.3,.68,.56,.91Z"/>
    <path class="cls-4" d="M152.1,160.5c-.38,.36-.46,.92-1.01,.89-.27-.01-.57-.3-.45-.54,.18-.37,.4-.85,.9-.85,.18,0,.37,.31,.57,.5Z"/>
    <path class="cls-4" d="M52.04,106.21c-.5,.08-.81-.11-.75-.56,.07-.53,.59-.27,.9-.35,.4-.11,.62,.15,.62,.52,.01,.66-.54,.26-.77,.39Z"/>
    <path class="cls-4" d="M4.97,47.73c-.48-.05-.42-.63-.55-1.02-.12-.34,.28-.56,.48-.54,.6,.04,.54,.6,.6,1.01,.04,.26,.07,.59-.53,.55Z"/>
    <path class="cls-4" d="M195.88,81.82c-.23-.26-.73-.25-.52-.61,.2-.33,.07-1.03,.77-.9,.19,.04,.66,.02,.44,.46-.18,.36-.22,.87-.69,1.05Z"/>
    <path class="cls-4" d="M68.74,122.26c.46,.21,.58,.66,.66,1.08,.06,.35-.4,.46-.56,.43-.5-.12-.59-.65-.68-1.05-.06-.27,.31-.38,.59-.45Z"/>
    <path class="cls-4" d="M78.9,158.27c.06,.33,.03,.54-.35,.59-.63,.08-.6-.41-.7-.77-.1-.34-.03-.64,.42-.65,.61-.02,.45,.55,.63,.82Z"/>
    <path class="cls-4" d="M155,157.09c.43-.07,.52,.29,.52,.5,0,.5-.49,.59-.85,.71-.29,.1-.63-.19-.61-.4,.04-.53,.6-.59,.94-.81Z"/>
    <path class="cls-4" d="M157.11,55.48c.03,.37-.21,.54-.48,.55-.55,.02-.56-.54-.71-.87-.12-.28,.16-.55,.46-.54,.53,0,.53,.54,.74,.86Z"/>
    <path class="cls-4" d="M3.67,56.43c-.24-.14-.69-.05-.55-.48,.12-.37,.15-.88,.62-.99,.26-.06,.66,.15,.6,.4-.1,.4-.17,.91-.67,1.08Z"/>
    <path class="cls-4" d="M3.41,57.57c-.19,.36-.13,.96-.75,.96-.28,0-.57-.23-.43-.53,.15-.33,.12-.88,.67-.9,.24,0,.59,.02,.51,.47Z"/>
    <path class="cls-4" d="M1.33,60.09c.16-.31,.13-.82,.56-.92,.24-.06,.69,.07,.6,.51-.08,.37-.15,.86-.54,.99-.23,.07-.61-.13-.61-.58Z"/>
    <path class="cls-4" d="M157.6,156.58c-.14,.44-.58,.51-.93,.61-.41,.11-.62-.25-.55-.56,.1-.43,.57-.5,.94-.56,.3-.04,.49,.17,.54,.51Z"/>
    <path class="cls-4" d="M.87,62.7c-.36-.01-.5-.19-.39-.54,.12-.38,.14-.87,.71-.84,.31,.02,.55,.27,.38,.57-.17,.3-.03,.93-.7,.82Z"/>
    <path class="cls-4" d="M167.83,124.19c-.22-.15-.65-.2-.45-.54,.19-.33,.08-1,.76-.91,.23,.03,.62,.05,.41,.47-.18,.36-.08,.95-.72,.97Z"/>
    <path class="cls-4" d="M4.47,76.85c-.56-.13-.83-.5-1.01-.89-.15-.33,.24-.46,.44-.49,.55-.07,.77,.4,.95,.78,.14,.32-.29,.37-.38,.6Z"/>
    <path class="cls-4" d="M5.95,78.45c-.56-.13-.83-.5-1.01-.89-.15-.33,.24-.46,.44-.49,.55-.07,.77,.4,.95,.78,.14,.32-.29,.37-.38,.6Z"/>
    <path class="cls-4" d="M66.02,110.6c-.59-.04-.42-.62-.62-.93-.22-.34,.15-.48,.41-.53,.65-.12,.52,.47,.67,.79,.2,.44-.14,.55-.46,.68Z"/>
    <path class="cls-4" d="M165.28,64.32c.4,.34,.92,.5,.9,1.02,0,.22-.32,.51-.61,.37-.34-.16-.75-.39-.75-.83,0-.18,.3-.37,.47-.57Z"/>
    <path class="cls-4" d="M197.22,76.72c-.02,.19,.16,.66-.46,.63-.6-.03-.33-.54-.45-.83-.17-.44,.07-.58,.46-.59,.46,0,.48,.31,.45,.79Z"/>
    <path class="cls-4" d="M171.49,69.65c-.12,.31-.28,.59-.59,.49-.37-.12-.78-.34-.87-.74-.05-.23,.24-.62,.49-.54,.4,.13,.83,.33,.98,.79Z"/>
    <path class="cls-4" d="M65.15,108.43c-.51-.02-.52-.53-.69-.85-.16-.3,.1-.56,.37-.58,.59-.04,.68,.49,.81,.89,.11,.32-.16,.47-.49,.54Z"/>
    <path class="cls-4" d="M17.35,92.98c.36,.27,.87,.43,.94,.91,.04,.28-.3,.45-.58,.4-.41-.07-.76-.31-.8-.75-.02-.23,.15-.49,.45-.56Z"/>
    <path class="cls-4" d="M90.05,190.82c-.1,.33-.3,.54-.6,.45-.47-.15-.57-.65-.8-1.02,.24-.12,.5-.37,.7-.32,.42,.11,.54,.55,.7,.9Z"/>
    <path class="cls-4" d="M93.36,195.4c.49,.18,.54,.67,.67,1.07,.13,.41-.35,.42-.52,.4-.54-.06-.61-.6-.71-1-.07-.27,.29-.39,.57-.47Z"/>
    <path class="cls-4" d="M94.19,197.59c.47,.12,.49,.55,.54,.94,.04,.31-.07,.52-.43,.5-.66-.03-.52-.63-.65-.99-.12-.35,.25-.39,.55-.44Z"/>
    <path class="cls-4" d="M127.47,201.78c.11-.41,.46-.65,.82-.81,.31-.14,.64,.16,.63,.36-.02,.5-.46,.79-.86,.97-.24,.11-.45-.23-.59-.52Z"/>
    <path class="cls-4" d="M95.53,202.83c.14,.53-.07,.73-.45,.73-.71,0-.33-.6-.43-.91-.12-.36,.17-.61,.54-.57,.56,.07,.26,.57,.33,.75Z"/>
    <path class="cls-4" d="M1.27,71.79c.49,.11,.67,.57,.8,.97,.07,.24-.35,.48-.55,.44-.43-.08-.64-.5-.76-.88-.09-.29,.18-.48,.52-.53Z"/>
    <path class="cls-4" d="M95.69,205.11c.03,.4-.07,.75-.47,.74-.45-.01-.58-.38-.53-.79,.03-.29-.12-.7,.43-.66,.51,.03,.59,.35,.56,.72Z"/>
    <path class="cls-4" d="M122.81,206.72c-.38,0-.56-.33-.57-.52,0-.53,.55-.62,.91-.8,.27-.13,.54,.22,.54,.46,0,.55-.6,.58-.88,.86Z"/>
    <path class="cls-4" d="M96.15,207.43c.09,.55-.31,.68-.55,.66-.5-.05-.47-.6-.6-.94-.14-.36,.21-.46,.48-.48,.63-.05,.42,.59,.67,.76Z"/>
    <path class="cls-4" d="M195.56,82.85c-.24,.29-.22,.84-.73,.88-.27,.02-.63-.18-.53-.46,.12-.35,.21-.85,.72-.91,.32-.04,.52,.13,.54,.49Z"/>
    <path class="cls-4" d="M175.51,112.78c.14-.38,.53-.54,.86-.71,.34-.17,.56,.17,.58,.39,.06,.59-.53,.69-.89,.88-.22,.12-.43-.24-.56-.56Z"/>
    <path class="cls-4" d="M117.62,209.05c-.1,.33-.47,.38-.79,.47-.47,.14-.74-.15-.73-.55,.01-.5,.56-.31,.84-.47,.41-.23,.53,.15,.67,.55Z"/>
    <path class="cls-4" d="M105.31,209.02c.57-.17,.86-.11,.86,.34,0,.54-.45,.45-.79,.52-.39,.08-.65-.09-.66-.47-.03-.61,.5-.36,.6-.39Z"/>
    <path class="cls-4" d="M66.69,114.18c-.16-.48,.13-.64,.46-.61,.49,.05,.41,.49,.45,.84,.04,.37-.08,.62-.49,.63-.76,.01-.2-.64-.42-.86Z"/>
    <path class="cls-4" d="M98.62,209.66c.23,.26,.92-.12,.84,.62-.04,.38-.19,.47-.54,.4-.38-.08-.91,.05-.86-.6,.02-.29,.18-.52,.56-.42Z"/>
    <path class="cls-4" d="M.57,65.73c.74-.06,.73,.41,.84,.79,.12,.43-.09,.61-.46,.61-.61,0-.44-.59-.61-.91-.19-.34,.06-.48,.24-.49Z"/>
    <path class="cls-4" d="M177.84,70.81c.07,.7-.54,.5-.84,.67-.25,.14-.51,.08-.56-.31-.08-.6,.34-.66,.75-.71,.29-.04,.67-.12,.66,.35Z"/>
    <path class="cls-4" d="M21.56,97.03c0,.34-.21,.57-.49,.56-.48-.02-.65-.48-.81-.83-.14-.3,.18-.54,.45-.53,.48,.02,.63,.47,.86,.8Z"/>
    <path class="cls-4" d="M67.88,121.71c-.53-.08-.43-.61-.58-.93-.13-.29,.07-.52,.42-.51,.47,.02,.54,.43,.67,.76,.19,.46-.23,.5-.51,.68Z"/>
    <path class="cls-4" d="M29.6,105.11c-.12,.26-.21,.62-.56,.47-.35-.15-.85-.26-.81-.8,.02-.25,.19-.6,.51-.43,.33,.18,.8,.27,.86,.76Z"/>
    <path class="cls-4" d="M57.33,105.26c.02,.65-.49,.52-.87,.59-.43,.08-.57-.14-.56-.54,.02-.57,.45-.46,.79-.49,.34-.04,.67-.06,.63,.44Z"/>
    <path class="cls-4" d="M22.44,99.4c-.35-.27-.74-.56-.75-1.04,0-.23,.37-.53,.58-.43,.38,.19,.76,.52,.77,.99,0,.23-.27,.45-.59,.48Z"/>
    <path class="cls-4" d="M74.14,136.39c-.74,.06-.42-.57-.6-.86-.17-.28-.13-.5,.27-.55,.46-.06,.7,.11,.69,.58,0,.33,.19,.76-.36,.83Z"/>
    <path class="cls-4" d="M75.02,138c.06,.44-.03,.64-.41,.62-.68-.03-.57-.6-.67-.99-.1-.36,.2-.44,.5-.43,.61,.03,.4,.6,.58,.79Z"/>
    <path class="cls-4" d="M164.96,143.25c-.22,.62,.04,1.12-.53,1.16-.39,.03-.57-.22-.49-.6,.07-.31-.12-.79,.45-.8,.38-.01,.65,.11,.58,.25Z"/>
    <path class="cls-4" d="M76.32,144.86c.11,.45-.23,.5-.47,.5-.6,0-.53-.48-.56-.88-.03-.41,.21-.63,.57-.58,.59,.08,.2,.71,.46,.96Z"/>
    <path class="cls-4" d="M164.48,145.76c-.21,.24,.02,.83-.56,.88-.43,.04-.54-.26-.49-.61,.06-.38,.05-.84,.66-.81,.33,.02,.51,.13,.4,.54Z"/>
    <path class="cls-4" d="M165.96,132.33c-.06,.23,.14,.7-.46,.71-.54,.01-.4-.38-.42-.67-.02-.36-.07-.78,.48-.78,.47,0,.48,.31,.4,.74Z"/>
    <path class="cls-4" d="M152.8,160.14c-.32-.42-.64-.66-.61-.84,.1-.5,.53-.8,1-.89,.27-.05,.55,.39,.49,.53-.18,.39-.5,.71-.88,1.19Z"/>
    <path class="cls-4" d="M78.93,159.66c.5,.15,.34,.71,.49,1.08,.13,.31-.21,.31-.42,.34-.62,.07-.6-.41-.65-.8-.05-.37,.08-.62,.57-.62Z"/>
    <path class="cls-4" d="M150.1,161.87c.3,.05,.62,.23,.51,.47-.16,.37-.28,.92-.85,.9-.17,0-.48-.33-.46-.39,.16-.4,.28-.86,.79-.98Z"/>
    <path class="cls-4" d="M146.78,169.03c.08-.32,0-.82,.62-.8,.28,0,.62,.11,.44,.46-.17,.32,.05,.89-.53,.96-.4,.05-.58-.17-.53-.61Z"/>
    <path class="cls-4" d="M36.05,106.19c.36,.03,.78-.03,.76,.54-.01,.31-.09,.6-.47,.45-.33-.13-.91,.13-.94-.54-.02-.5,.32-.46,.65-.45Z"/>
    <path class="cls-4" d="M83.35,171.42c-.05,.37-.3,.49-.6,.43-.53-.09-.56-.6-.64-.97-.07-.29,.29-.48,.58-.42,.5,.1,.4,.68,.66,.96Z"/>
    <path class="cls-4" d="M146.82,173.26c-.05,.38,.03,.88-.6,.84-.26-.01-.64,0-.44-.42,.16-.33-.06-.89,.5-.99,.42-.07,.57,.17,.53,.56Z"/>
    <path class="cls-4" d="M1.05,64.13c-.04,.33,.15,.78-.46,.8-.53,.02-.62-.29-.58-.71,.03-.38,.06-.73,.6-.73,.5,0,.48,.29,.44,.64Z"/>
    <path class="cls-4" d="M60.28,.06c.34-.02,.67-.11,.69,.4,.03,.65-.46,.41-.76,.46-.34,.07-.65,0-.68-.44-.05-.68,.51-.29,.74-.43Z"/>
    <path class="cls-4" d="M141.88,187.09c-.28-.08-.64-.22-.57-.47,.11-.39,.23-.91,.82-.92,.25,0,.52,.16,.47,.36-.11,.41-.27,.84-.72,1.03Z"/>
    <path class="cls-4" d="M140.71,189.02c-.36-.01-.57-.23-.55-.51,.04-.41,.25-.77,.71-.86,.26-.05,.52,.11,.51,.32-.03,.45-.33,.79-.68,1.05Z"/>
    <path class="cls-4" d="M88.43,189.34c-.54-.15-.62-.58-.71-.96-.09-.36,.2-.49,.49-.47,.53,.04,.56,.55,.67,.9,.1,.31-.24,.42-.45,.53Z"/>
    <path class="cls-4" d="M58.76,.94c-.16,.45-.59,.46-.97,.51-.33,.04-.52-.2-.48-.5,.09-.59,.63-.53,1.04-.59,.42-.07,.33,.31,.4,.58Z"/>
    <path class="cls-4" d="M64.69,.36c.29,.12,.82,.03,.84,.54,0,.23-.2,.73-.59,.5-.3-.18-.92,.07-.91-.52,0-.3,.18-.62,.66-.52Z"/>
    <path class="cls-4" d="M138.78,191.61c-.41,.38-.68,.74-1.05,.93-.2,.1-.56-.23-.56-.47,0-.49,.43-.77,.81-.95,.36-.17,.42,.36,.81,.48Z"/>
    <path class="cls-4" d="M196.73,74.59c0,.44-.22,.57-.52,.56-.46-.02-.54-.43-.64-.75-.08-.27,.06-.61,.39-.57,.45,.05,.6,.49,.77,.77Z"/>
    <path class="cls-4" d="M92.15,193.47c.42,.21,.66,.59,.78,1.03,.02,.07-.34,.34-.52,.34-.56-.01-.7-.55-.88-.94-.07-.14,.32-.38,.63-.43Z"/>
    <path class="cls-4" d="M82.65,1.48c.31,.01,.7-.07,.71,.41,.02,.58-.44,.57-.85,.65-.42,.08-.57-.06-.59-.47-.02-.54,.35-.56,.73-.58Z"/>
    <path class="cls-4" d="M13.84,90.17c.27,.31,.88,.36,.8,.94-.03,.25-.31,.51-.61,.35-.34-.17-.78-.35-.76-.82,0-.25,.23-.48,.58-.47Z"/>
    <path class="cls-4" d="M43.19,3.73c-.43-.05-.7-.22-.6-.53,.12-.38,.36-.79,.79-.86,.29-.05,.53,.35,.49,.56-.08,.39-.4,.67-.68,.83Z"/>
    <path class="cls-4" d="M180.93,110.15c-.06,.48-.48,.62-.84,.74-.28,.09-.58-.11-.58-.41-.01-.52,.52-.58,.84-.77,.3-.17,.44,.18,.58,.44Z"/>
    <path class="cls-4" d="M187.22,102.33c-.28-.12-.59-.26-.48-.58,.14-.37,.35-.81,.83-.82,.27,0,.57,.23,.44,.54-.15,.36-.36,.74-.79,.86Z"/>
    <path class="cls-4" d="M86.49,8.27c-.29-.01-.53-.17-.43-.5,.09-.33-.22-.89,.41-.96,.38-.04,.54,.23,.52,.61-.02,.36,0,.73-.49,.84Z"/>
    <path class="cls-4" d="M85.79,13.35c.39,.34,.89,.5,.88,1.02,0,.3-.32,.49-.59,.39-.37-.14-.74-.38-.78-.83-.03-.34,.31-.37,.49-.57Z"/>
    <path class="cls-4" d="M94.43,16.64c.36,.16,.84,.17,.86,.72,.01,.36-.24,.55-.52,.42-.32-.15-.9-.08-.88-.67,.01-.29,.19-.5,.53-.47Z"/>
    <path class="cls-4" d="M121.66,18.92c.26,.06,.73-.13,.77,.43,.02,.34-.03,.67-.5,.57-.35-.07-.87,.12-.91-.53-.03-.47,.24-.51,.64-.48Z"/>
    <path class="cls-4" d="M124.19,20.17c-.25-.26-.88,.16-.94-.48-.05-.55,.34-.52,.72-.51,.4,0,.74,.06,.7,.58-.02,.27-.05,.56-.48,.42Z"/>
    <path class="cls-4" d="M19.91,24.16c-.38-.1-.56-.33-.53-.6,.05-.48,.46-.65,.86-.74,.25-.06,.46,.17,.48,.39,.07,.64-.7,.5-.81,.94Z"/>
    <path class="cls-4" d="M9.29,36.03c-.27-.18-.68-.22-.62-.55,.06-.39,.27-.81,.64-.98,.26-.12,.58,.14,.61,.4,.04,.49-.39,.76-.62,1.13Z"/>
    <path class="cls-4" d="M152.03,45.5c.04,.36-.26,.53-.49,.53-.49,0-.64-.47-.8-.81-.13-.3,.18-.53,.45-.53,.49,0,.61,.48,.84,.82Z"/>
    <path class="cls-4" d="M97.49,209.33c-.08,.34-.29,.56-.58,.48-.39-.1-.76-.37-.8-.8-.02-.27,.27-.55,.54-.46,.38,.12,.71,.38,.84,.78Z"/>
    <path class="cls-4" d="M107.85,208.65c.34,0,.68-.02,.68,.46,0,.65-.5,.37-.8,.43-.35,.07-.67,0-.67-.45-.01-.63,.51-.33,.79-.44Z"/>
    <path class="cls-4" d="M152.3,46.59c.56,.18,.6,.6,.64,1.01,.03,.37-.22,.48-.52,.44-.58-.06-.42-.63-.57-.96-.13-.28,.26-.39,.45-.49Z"/>
    <path class="cls-4" d="M4.94,48.91c-.23,.29-.16,.85-.75,.81-.24-.01-.47-.06-.4-.4,.08-.4,.13-.87,.61-.95,.23-.04,.51,.18,.55,.53Z"/>
    <path class="cls-4" d="M113.89,209.16c.05-.4,.53-.13,.84-.21,.41-.1,.64,.13,.62,.51-.03,.61-.55,.32-.85,.38-.34,.06-.66-.02-.6-.68Z"/>
    <path class="cls-4" d="M161.84,61.56c.35,.16,.77,.32,.87,.72,.06,.22-.23,.59-.49,.53-.42-.09-.87-.33-.95-.8-.05-.27,.26-.43,.58-.46Z"/>
    <path class="cls-4" d="M163.69,62.98c.31,.17,.75,.32,.79,.76,.02,.23-.22,.6-.51,.52-.43-.11-.87-.4-.93-.88-.03-.24,.27-.45,.65-.4Z"/>
    <path class="cls-4" d="M163.97,147.94c-.17,.3-.01,.91-.66,.92-.33,0-.5-.23-.42-.53,.09-.35,.02-.86,.59-.89,.28-.01,.55,.04,.49,.5Z"/>
    <path class="cls-4" d="M4.26,45.52c-.59,.04-.45-.46-.55-.76-.11-.34-.07-.62,.4-.64,.55-.03,.56,.33,.57,.71,0,.31,.07,.67-.42,.69Z"/>
    <path class="cls-4" d="M35.17,10.01c-.11,.44-.52,.62-.86,.79-.34,.16-.49-.25-.5-.45-.03-.5,.43-.66,.79-.8,.31-.11,.48,.15,.57,.47Z"/>
    <path class="cls-4" d="M5.57,40.25c-.23,.28-.18,.81-.72,.85-.33,.02-.55-.18-.46-.49,.11-.35,.13-.86,.65-.88,.27-.01,.49,.18,.52,.51Z"/>
    <path class="cls-4" d="M42.63,4.85c-.19,.34-.36,.75-.84,.76-.25,0-.6-.19-.44-.48,.19-.33,.33-.81,.8-.84,.29-.02,.46,.24,.47,.57Z"/>
    <path class="cls-4" d="M9.24,81.61c-.02,.33-.23,.48-.52,.47-.54-.01-.55-.53-.71-.86-.14-.3,.13-.54,.41-.54,.6-.01,.6,.57,.82,.93Z"/>
    <path class="cls-4" d="M86.92,3.96c-.27-.23-.72-.36-.66-.83,.02-.19,.05-.63,.46-.49,.39,.14,.76,.39,.8,.84,.03,.33-.29,.41-.6,.48Z"/>
    <path class="cls-4" d="M69.21,124.95c-.07-.4,.19-.58,.46-.6,.59-.04,.54,.52,.67,.86,.11,.3-.17,.61-.42,.6-.53,0-.49-.58-.71-.86Z"/>
    <path class="cls-4" d="M66.99,118.1c.64-.04,.55,.45,.6,.83,.06,.39-.13,.62-.53,.57-.58-.07-.35-.64-.51-.96-.19-.39,.16-.42,.43-.44Z"/>
    <path class="cls-4" d="M172.69,116.47c-.35-.16-.67-.33-.6-.59,.11-.43,.41-.8,.92-.81,.27,0,.61,.21,.5,.45-.18,.37-.55,.66-.81,.96Z"/>
    <path class="cls-4" d="M124.05,204.78c.2-.39,.51-.71,.98-.74,.14-.01,.45,.27,.45,.41-.02,.53-.5,.72-.89,.88-.23,.09-.45-.22-.53-.55Z"/>
    <path class="cls-4" d="M179.3,71.02c-.3-.01-.66,.09-.65-.44,.01-.65,.58-.45,.9-.61,.29-.15,.5-.05,.53,.34,.05,.6-.35,.65-.77,.71Z"/>
    <path class="cls-4" d="M161.42,154.18c-.21,.32-.32,.78-.83,.78-.28,0-.62-.16-.5-.48,.13-.36,.37-.78,.79-.84,.19-.02,.52,.17,.54,.54Z"/>
    <path class="cls-4" d="M7.98,79.65c-.08,.31-.27,.56-.57,.49-.43-.1-.69-.48-.76-.88-.06-.28,.23-.54,.53-.47,.43,.1,.59,.53,.8,.86Z"/>
    <path class="cls-4" d="M77.76,155.22c.49-.05,.63,.23,.62,.66,0,.34,.15,.77-.46,.75-.66-.02-.36-.62-.53-.93-.2-.35,.04-.47,.37-.48Z"/>
    <path class="cls-4" d="M160.69,61.42c0,.13-.24,.28-.54,.18-.35-.12-.88-.13-.88-.67,0-.3,.32-.56,.57-.41,.29,.18,.9,.02,.84,.9Z"/>
    <path class="cls-4" d="M153.81,52.46c-.51-.05-.58-.48-.66-.88-.06-.3,.03-.52,.41-.55,.64-.04,.5,.55,.67,.86,.17,.3-.08,.5-.42,.57Z"/>
    <path class="cls-4" d="M153.17,50.24c-.67,.02-.55-.49-.6-.85-.06-.38,.11-.62,.52-.55,.58,.09,.33,.65,.49,.98,.21,.42-.2,.37-.41,.42Z"/>
    <path class="cls-4" d="M75.04,140.84c-.68,.02-.53-.49-.58-.86-.05-.39,.11-.61,.53-.55,.62,.09,.29,.66,.46,.98,.22,.42-.19,.38-.41,.43Z"/>
    <path class="cls-4" d="M4.69,42.61c-.11,.19,.22,.72-.43,.7-.61-.01-.43-.44-.44-.77,0-.41,.07-.71,.6-.66,.53,.05,.41,.34,.27,.72Z"/>
    <path class="cls-4" d="M34.58,106.44c-.11,.51-.51,.35-.86,.33-.39-.02-.59-.17-.55-.6,.04-.54,.35-.4,.67-.3,.31,.09,.81-.09,.74,.57Z"/>
    <path class="cls-4" d="M19.1,24.76c-.17,.37-.38,.72-.82,.82-.3,.06-.62-.14-.53-.43,.11-.37,.35-.78,.77-.88,.28-.07,.48,.19,.58,.5Z"/>
    <path class="cls-4" d="M185.54,105.29c-.25,.28-.26,.81-.74,.86-.25,.02-.61-.17-.52-.46,.13-.4,.27-.92,.87-.87,.22,.02,.41,.17,.39,.47Z"/>
    <path class="cls-4" d="M147.31,170.92c-.23,.27,.01,.85-.57,.95-.33,.05-.54-.07-.51-.44,.04-.4-.04-.89,.54-.96,.28-.03,.57,.01,.54,.45Z"/>
    <path class="cls-4" d="M196.96,78.18c.19,0,.36,.18,.25,.51-.12,.35-.03,.9-.63,.9-.34,0-.5-.24-.44-.55,.06-.39,.04-.87,.82-.86Z"/>
    <path class="cls-4" d="M32.63,12.29c-.32-.07-.61-.21-.49-.54,.13-.38,.4-.77,.84-.79,.26-.01,.55,.29,.47,.55-.11,.38-.42,.67-.82,.78Z"/>
    <path class="cls-4" d="M112.55,209.83c-.52-.04-.96,.07-.93-.52,.02-.38,.3-.46,.58-.4,.3,.07,.8-.16,.82,.45,.02,.49-.28,.5-.47,.46Z"/>
    <path class="cls-4" d="M39.06,106.7c-.06,.78-.51,.56-.82,.59-.34,.04-.63,0-.6-.47,.04-.61,.48-.37,.79-.39,.32-.02,.66-.02,.63,.27Z"/>
    <path class="cls-4" d="M112.53,19.85c-.33,.02-.63,.05-.66-.43-.03-.61,.39-.49,.73-.49,.3,0,.66-.09,.67,.41,.02,.59-.4,.48-.75,.51Z"/>
    <path class="cls-4" d="M48.19,106.19c.02,.76-.47,.52-.77,.57-.31,.05-.65,.05-.64-.43,0-.61,.49-.36,.79-.43,.34-.08,.63-.03,.62,.29Z"/>
    <path class="cls-4" d="M55.05,105.22c.1,.7-.23,.72-.56,.71-.31-.01-.74,.23-.83-.36-.08-.51,.26-.49,.57-.48,.32,0,.75-.19,.82,.14Z"/>
    <path class="cls-4" d="M165.71,136.83c-.08,.31,.08,.78-.53,.71-.49-.06-.37-.42-.36-.71,0-.28-.15-.67,.36-.7,.54-.03,.54,.33,.53,.7Z"/>
    <path class="cls-4" d="M165.53,135.29c-.76-.06-.49-.51-.5-.82-.01-.33,.04-.64,.51-.58,.59,.07,.33,.53,.37,.84,.05,.37-.07,.63-.38,.56Z"/>
    <path class="cls-4" d="M58.83,104.81c.28,.08,.78-.2,.78,.43,0,.47-.32,.49-.65,.45-.32-.04-.78,.13-.8-.46-.02-.52,.36-.41,.68-.43Z"/>
    <path class="cls-4" d="M105.64,20.03c-.53,.07-.73-.09-.66-.52,.08-.51,.49-.29,.77-.32,.34-.05,.66-.03,.63,.46-.05,.64-.58,.23-.73,.38Z"/>
    <path class="cls-4" d="M175,71c.35-.03,.65,0,.61,.47-.05,.57-.52,.37-.83,.43-.32,.06-.65,.05-.59-.46,.06-.56,.49-.4,.81-.44Z"/>
    <path class="cls-4" d="M110.04,208.66c.25,.09,.73-.17,.74,.44,.01,.49-.33,.46-.64,.43-.31-.03-.76,.17-.77-.44,0-.48,.29-.47,.66-.44Z"/>
    <path class="cls-4" d="M104.13,19.59c.05,.47-.24,.54-.59,.51-.32-.03-.76,.2-.82-.4-.04-.46,.23-.54,.59-.49,.31,.04,.77-.2,.82,.38Z"/>
    <path class="cls-4" d="M120.2,19.37c-.05,.57-.49,.39-.81,.41-.31,.02-.66,.05-.63-.45,.04-.6,.49-.38,.8-.4,.3-.02,.68-.07,.63,.44Z"/>
    <path class="cls-4" d="M115.54,19.22c-.02,.73-.48,.54-.79,.57-.31,.03-.65,.06-.64-.43,.01-.61,.47-.4,.78-.43,.3-.02,.67-.08,.65,.29Z"/>
    <path class="cls-4" d="M45.94,106.78c-.06,.45-.53,.19-.84,.25-.42,.08-.61-.14-.55-.54,.08-.46,.49-.3,.77-.34,.34-.05,.66,.01,.61,.63Z"/>
  </g>
</svg>