<?xml version="1.0"?>
<svg xmlns="http://www.w3.org/2000/svg" xmlns:xlink="http://www.w3.org/1999/xlink" xmlns:svgjs="http://svgjs.com/svgjs" version="1.1" width="512" height="512" x="0" y="0" viewBox="0 0 509.87489 509.87489" style="enable-background:new 0 0 512 512" xml:space="preserve" class=""><g><path xmlns="http://www.w3.org/2000/svg" d="m23.503906 198.367188 174.863282-174.863282c31.242187-31.242187 81.898437-31.242187 113.140624 0l174.863282 174.863282c31.242187 31.242187 31.242187 81.898437 0 113.140624l-174.863282 174.863282c-31.242187 31.242187-81.898437 31.242187-113.140624 0l-174.863282-174.863282c-31.242187-31.242187-31.242187-81.898437 0-113.140624zm0 0" fill="#f3da90" data-original="#ffda6b" style="" class=""/><g xmlns="http://www.w3.org/2000/svg" fill="#fff"><path d="m254.929688 142.9375c8.835937 0 16 7.164062 16 16v128c0 8.835938-7.164063 16-16 16-8.835938 0-16-7.164062-16-16v-128c0-8.835938 7.164062-16 16-16zm0 0" fill="#ffffff" data-original="#ffffff" style=""/><path d="m238.929688 334.9375h32v32h-32zm0 0" fill="#ffffff" data-original="#ffffff" style=""/></g></g></svg>
