<?xml version="1.0"?>
<svg xmlns="http://www.w3.org/2000/svg" xmlns:xlink="http://www.w3.org/1999/xlink" xmlns:svgjs="http://svgjs.com/svgjs" version="1.1" width="512" height="512" x="0" y="0" viewBox="0 0 512 512" style="enable-background:new 0 0 512 512" xml:space="preserve" class=""><g>
<g xmlns="http://www.w3.org/2000/svg">
	<path d="M256,301c49.629,0,90-40.371,90-90s-40.371-90-90-90s-90,40.371-90,90S206.371,301,256,301z M200.395,215.395   c5.859-5.859,15.352-5.859,21.211,0L241,234.789l49.395-49.395c5.859-5.859,15.352-5.859,21.211,0s5.859,15.352,0,21.211l-60,60   c-2.93,2.93-6.768,4.395-10.605,4.395s-7.676-1.465-10.605-4.395l-30-30C194.535,230.746,194.535,221.254,200.395,215.395z" fill="#59ed9c" data-original="#000000" style="" class=""/>
	<path d="M50.395,200.395c-5.859,5.859-5.859,15.352,0,21.211l28.96,28.96c3.779,3.779,5.259,9.331,3.882,14.487l-10.591,39.565   c-2.139,7.998,2.607,16.23,10.605,18.369l39.565,10.605c5.156,1.377,9.214,5.435,10.591,10.605l10.605,39.551   c2.153,8.013,10.43,12.773,18.369,10.605l39.551-10.591c5.229-1.377,10.723,0.088,14.502,3.882l28.96,28.96   c2.93,2.93,6.768,4.395,10.605,4.395s7.676-1.465,10.605-4.395l28.96-28.96c3.75-3.765,9.302-5.244,14.487-3.882l39.565,10.591   c8.071,2.183,16.23-2.593,18.369-10.605l10.605-39.565c1.377-5.156,5.435-9.214,10.605-10.591l39.551-10.605   c7.998-2.139,12.744-10.371,10.605-18.369l-10.591-39.551c-1.377-5.171,0.103-10.723,3.882-14.502l28.96-28.96   c5.859-5.859,5.859-15.352,0-21.211l-28.96-28.96c-3.779-3.779-5.259-9.331-3.882-14.487l10.591-39.565   c2.139-7.998-2.607-16.23-10.605-18.369l-39.565-10.605c-5.156-1.377-9.214-5.435-10.591-10.605l-10.605-39.551   c-2.153-8.013-10.313-12.7-18.369-10.605l-39.551,10.591c-5.273,1.318-10.752-0.103-14.502-3.882l-28.96-29.96   c-5.859-5.859-15.352-5.859-21.211,0l-28.96,29.96c-3.779,3.779-9.316,5.215-14.487,3.882l-39.565-10.591   c-7.925-2.065-16.216,2.593-18.369,10.605l-10.605,39.565c-1.377,5.156-5.435,9.214-10.605,10.591L83.251,99.013   c-7.998,2.139-12.744,10.371-10.605,18.369l10.591,39.551c1.377,5.171-0.103,10.723-3.882,14.502L50.395,200.395z M256,91   c66.167,0,120,53.833,120,120s-53.833,120-120,120s-120-53.833-120-120S189.833,91,256,91z" fill="#59ed9c" data-original="#000000" style="" class=""/>
	<path d="M405.326,360.326l-8.364,31.187c-5.244,19.644-23.086,33.369-43.389,33.369c-3.97,0-7.939-0.527-11.792-1.567   l-31.128-8.335l-13.132,13.132l43.528,76.388c2.607,4.497,7.354,7.339,12.539,7.5c0.161,0,0.308,0,0.454,0   c5.024,0,9.741-2.52,12.524-6.738l32.813-50.717l59.473-3.574c5.2-0.308,9.858-3.281,12.319-7.866   c2.461-4.57,2.373-10.107-0.22-14.604l-42.876-74.268L405.326,360.326z" fill="#59ed9c" data-original="#000000" style="" class=""/>
	<path d="M40.829,443.104c2.461,4.585,7.119,7.559,12.319,7.866l59.473,3.574l32.813,50.717c2.783,4.219,7.5,6.738,12.524,6.738   c0.146,0,0.293,0,0.454,0c5.186-0.161,9.932-3.003,12.539-7.5l43.528-76.388l-13.132-13.132l-31.201,8.35   c-3.706,1.011-7.676,1.553-11.66,1.553c-20.303,0-38.174-13.711-43.447-33.34l-8.364-31.216l-22.745-6.101L41.049,428.5   C38.456,432.997,38.368,438.534,40.829,443.104z" fill="#59ed9c" data-original="#000000" style="" class=""/>
</g>















</g></svg>
